<svg width="46" height="60" viewBox="0 0 46 60" fill="none" xmlns="http://www.w3.org/2000/svg">
<path fill-rule="evenodd" clip-rule="evenodd" d="M20.7747 0.0388621C16.3619 0.494402 12.0728 2.25609 8.556 5.05765C4.43891 8.33741 1.46468 13.2273 0.377964 18.5034C-0.0568457 20.6143 -0.125945 24.0788 0.219856 26.4275C0.53895 28.5943 1.49709 31.589 2.60666 33.8872C4.51319 37.8363 6.98879 41.1599 13.491 48.5001C15.9022 51.222 16.6467 52.0805 17.9314 53.6198C19.6157 55.6379 20.3723 56.6258 22.0773 59.0332C22.9592 60.2782 23.0282 60.2874 23.7327 59.2529C24.3652 58.324 26.1314 55.9742 27.2902 54.5196C28.3915 53.1373 28.8853 52.5626 32.5681 48.3775C36.9524 43.3953 38.4093 41.6521 39.8653 39.6466C43.3955 34.784 45.3157 30.2188 45.8956 25.3095C46.0351 24.1286 46.0347 21.6885 45.8948 20.5364C45.4592 16.9481 44.3446 13.7445 42.4988 10.7754C39.6718 6.22784 35.2694 2.77186 30.1942 1.11598C28.601 0.596171 27.1605 0.283328 25.635 0.125926C24.5223 0.0111069 21.5579 -0.0419526 20.7747 0.0388621Z" fill="#c82929"/>
<rect x="7" y="7" width="32" height="32" rx="16" fill="white"/>
<path d="M24.1873 25.095V20.838C24.1873 20.436 24.2143 19.992 24.2683 19.506L20.2273 25.095H24.1873ZM27.7603 25.095V26.382C27.7603 26.502 27.7213 26.607 27.6433 26.697C27.5653 26.781 27.4543 26.823 27.3103 26.823H26.1223V30H24.1873V26.823H18.6973C18.5473 26.823 18.4153 26.778 18.3013 26.688C18.1873 26.592 18.1153 26.475 18.0853 26.337L17.8513 25.212L24.0163 16.977H26.1223V25.095H27.7603Z" fill="#c82929"/>
</svg>
