<svg width="46" height="60" viewBox="0 0 46 60" fill="none" xmlns="http://www.w3.org/2000/svg">
<path fill-rule="evenodd" clip-rule="evenodd" d="M20.7747 0.0388621C16.3619 0.494402 12.0728 2.25609 8.556 5.05765C4.43891 8.33741 1.46468 13.2273 0.377964 18.5034C-0.0568457 20.6143 -0.125945 24.0788 0.219856 26.4275C0.53895 28.5943 1.49709 31.589 2.60666 33.8872C4.51319 37.8363 6.98879 41.1599 13.491 48.5001C15.9022 51.222 16.6467 52.0805 17.9314 53.6198C19.6157 55.6379 20.3723 56.6258 22.0773 59.0332C22.9592 60.2782 23.0282 60.2874 23.7327 59.2529C24.3652 58.324 26.1314 55.9742 27.2902 54.5196C28.3915 53.1373 28.8853 52.5626 32.5681 48.3775C36.9524 43.3953 38.4093 41.6521 39.8653 39.6466C43.3955 34.784 45.3157 30.2188 45.8956 25.3095C46.0351 24.1286 46.0347 21.6885 45.8948 20.5364C45.4592 16.9481 44.3446 13.7445 42.4988 10.7754C39.6718 6.22784 35.2694 2.77186 30.1942 1.11598C28.601 0.596171 27.1605 0.283328 25.635 0.125926C24.5223 0.0111069 21.5579 -0.0419526 20.7747 0.0388621Z" fill="#4D516C"/>
<rect x="7" y="7" width="32" height="32" rx="16" fill="white"/>
<path fill-rule="evenodd" clip-rule="evenodd" d="M21.9308 14.0323C21.658 14.0875 21.4043 14.2856 21.2538 14.561C21.1362 14.7761 21.0507 16.0754 21.0461 17.7151L21.0431 18.7764L19.0225 18.7768C17.8959 18.7769 16.9005 18.8039 16.7727 18.8377C16.6466 18.871 16.4495 18.9905 16.3347 19.1032C16.0806 19.3527 16.0005 19.7324 16 20.6906C15.9995 21.548 16.0832 21.9532 16.3077 22.1807C16.6419 22.5193 16.7186 22.5294 18.9719 22.5294H21.0431L21.045 26.1131C21.0474 30.8027 21.1099 31.576 21.5052 31.8109C21.7806 31.9745 23.8038 32.0684 24.2894 31.9401C24.9267 31.7716 24.9768 31.3735 24.998 26.3131C25.0048 24.6888 25.0221 23.1744 25.0365 22.9477L25.0628 22.5354L27.2397 22.517C30.1548 22.4924 29.9985 22.602 29.9985 20.5809C29.9985 19.3421 29.9983 19.3396 29.8369 19.1754C29.477 18.8091 29.476 18.8089 27.1373 18.7873L24.9874 18.7675L24.987 17.0339C24.9865 14.8256 24.9225 14.4246 24.5262 14.1456C24.3767 14.0404 24.2233 14.0232 23.2653 14.0044C22.6654 13.9927 22.0649 14.0052 21.9308 14.0323Z" fill="#4D516C"/>
</svg>
