<svg width="46" height="60" viewBox="0 0 46 60" fill="none" xmlns="http://www.w3.org/2000/svg">
<path fill-rule="evenodd" clip-rule="evenodd" d="M20.7747 0.0388621C16.3619 0.494402 12.0728 2.25609 8.556 5.05765C4.43891 8.33741 1.46468 13.2273 0.377964 18.5034C-0.0568457 20.6143 -0.125945 24.0788 0.219856 26.4275C0.53895 28.5943 1.49709 31.589 2.60666 33.8872C4.51319 37.8363 6.98879 41.1599 13.491 48.5001C15.9022 51.222 16.6467 52.0805 17.9314 53.6198C19.6157 55.6379 20.3723 56.6258 22.0773 59.0332C22.9592 60.2782 23.0282 60.2874 23.7327 59.2529C24.3652 58.324 26.1314 55.9742 27.2902 54.5196C28.3915 53.1373 28.8853 52.5626 32.5681 48.3775C36.9524 43.3953 38.4093 41.6521 39.8653 39.6466C43.3955 34.784 45.3157 30.2188 45.8956 25.3095C46.0351 24.1286 46.0347 21.6885 45.8948 20.5364C45.4592 16.9481 44.3446 13.7445 42.4988 10.7754C39.6718 6.22784 35.2694 2.77186 30.1942 1.11598C28.601 0.596171 27.1605 0.283328 25.635 0.125926C24.5223 0.0111069 21.5579 -0.0419526 20.7747 0.0388621Z" fill="#E8EC2F"/>
<rect x="7" y="7" width="32" height="32" rx="16" fill="white"/>
<path d="M18.7513 20.613C18.8413 19.989 19.0153 19.443 19.2733 18.975C19.5313 18.501 19.8523 18.108 20.2363 17.796C20.6263 17.478 21.0703 17.241 21.5683 17.085C22.0723 16.923 22.6123 16.842 23.1883 16.842C23.7883 16.842 24.3283 16.929 24.8083 17.103C25.2943 17.271 25.7083 17.508 26.0503 17.814C26.3923 18.114 26.6533 18.468 26.8333 18.876C27.0193 19.284 27.1123 19.725 27.1123 20.199C27.1123 20.613 27.0643 20.979 26.9683 21.297C26.8783 21.609 26.7463 21.882 26.5723 22.116C26.3983 22.35 26.1823 22.548 25.9243 22.71C25.6663 22.872 25.3753 23.007 25.0513 23.115C25.8313 23.361 26.4133 23.736 26.7973 24.24C27.1813 24.744 27.3733 25.377 27.3733 26.139C27.3733 26.787 27.2533 27.36 27.0133 27.858C26.7733 28.356 26.4493 28.776 26.0413 29.118C25.6333 29.454 25.1593 29.709 24.6193 29.883C24.0853 30.057 23.5183 30.144 22.9183 30.144C22.2643 30.144 21.6943 30.069 21.2083 29.919C20.7223 29.769 20.2993 29.547 19.9393 29.253C19.5793 28.959 19.2733 28.599 19.0213 28.173C18.7693 27.747 18.5533 27.255 18.3733 26.697L19.3543 26.292C19.6123 26.184 19.8523 26.157 20.0743 26.211C20.3023 26.259 20.4673 26.379 20.5693 26.571C20.6773 26.781 20.7943 26.988 20.9203 27.192C21.0523 27.396 21.2083 27.579 21.3883 27.741C21.5683 27.897 21.7783 28.026 22.0183 28.128C22.2643 28.224 22.5553 28.272 22.8913 28.272C23.2693 28.272 23.5993 28.212 23.8813 28.092C24.1633 27.966 24.3973 27.804 24.5833 27.606C24.7753 27.408 24.9163 27.189 25.0063 26.949C25.1023 26.703 25.1503 26.457 25.1503 26.211C25.1503 25.899 25.1173 25.617 25.0513 25.365C24.9853 25.107 24.8473 24.888 24.6373 24.708C24.4273 24.528 24.1243 24.387 23.7283 24.285C23.3383 24.183 22.8133 24.132 22.1533 24.132V22.548C22.6993 22.542 23.1523 22.491 23.5123 22.395C23.8723 22.299 24.1573 22.167 24.3673 21.999C24.5833 21.825 24.7333 21.618 24.8173 21.378C24.9013 21.138 24.9433 20.874 24.9433 20.586C24.9433 19.974 24.7723 19.509 24.4303 19.191C24.0883 18.873 23.6323 18.714 23.0623 18.714C22.7983 18.714 22.5553 18.753 22.3333 18.831C22.1113 18.903 21.9103 19.008 21.7303 19.146C21.5563 19.278 21.4093 19.434 21.2893 19.614C21.1693 19.794 21.0793 19.992 21.0193 20.208C20.9173 20.484 20.7823 20.667 20.6143 20.757C20.4523 20.847 20.2213 20.868 19.9213 20.82L18.7513 20.613Z" fill="#E8EC2F"/>
</svg>
