<svg width="46" height="60" viewBox="0 0 46 60" fill="none" xmlns="http://www.w3.org/2000/svg">
<path fill-rule="evenodd" clip-rule="evenodd" d="M20.7747 0.0388621C16.3619 0.494402 12.0728 2.25609 8.556 5.05765C4.43891 8.33741 1.46468 13.2273 0.377964 18.5034C-0.0568457 20.6143 -0.125945 24.0788 0.219856 26.4275C0.53895 28.5943 1.49709 31.589 2.60666 33.8872C4.51319 37.8363 6.98879 41.1599 13.491 48.5001C15.9022 51.222 16.6467 52.0805 17.9314 53.6198C19.6157 55.6379 20.3723 56.6258 22.0773 59.0332C22.9592 60.2782 23.0282 60.2874 23.7327 59.2529C24.3652 58.324 26.1314 55.9742 27.2902 54.5196C28.3915 53.1373 28.8853 52.5626 32.5681 48.3775C36.9524 43.3953 38.4093 41.6521 39.8653 39.6466C43.3955 34.784 45.3157 30.2188 45.8956 25.3095C46.0351 24.1286 46.0347 21.6885 45.8948 20.5364C45.4592 16.9481 44.3446 13.7445 42.4988 10.7754C39.6718 6.22784 35.2694 2.77186 30.1942 1.11598C28.601 0.596171 27.1605 0.283328 25.635 0.125926C24.5223 0.0111069 21.5579 -0.0419526 20.7747 0.0388621Z" fill="#808080"/>
<rect x="7" y="7" width="32" height="32" rx="16" fill="white"/>
<path d="M21.4333 21.711C21.7213 21.651 21.9973 21.609 22.2613 21.585C22.5253 21.555 22.7803 21.54 23.0263 21.54C23.7103 21.54 24.3133 21.642 24.8353 21.846C25.3573 22.05 25.7953 22.332 26.1493 22.692C26.5033 23.052 26.7703 23.475 26.9503 23.961C27.1303 24.441 27.2203 24.96 27.2203 25.518C27.2203 26.208 27.0973 26.838 26.8513 27.408C26.6113 27.978 26.2753 28.467 25.8433 28.875C25.4113 29.277 24.8983 29.589 24.3043 29.811C23.7163 30.033 23.0743 30.144 22.3783 30.144C21.9703 30.144 21.5833 30.102 21.2173 30.018C20.8513 29.934 20.5063 29.823 20.1823 29.685C19.8643 29.541 19.5673 29.379 19.2913 29.199C19.0213 29.013 18.7783 28.818 18.5623 28.614L19.2463 27.669C19.3903 27.465 19.5793 27.363 19.8133 27.363C19.9633 27.363 20.1163 27.411 20.2723 27.507C20.4283 27.603 20.6053 27.708 20.8033 27.822C21.0073 27.936 21.2443 28.041 21.5143 28.137C21.7903 28.233 22.1203 28.281 22.5043 28.281C22.9123 28.281 23.2723 28.215 23.5843 28.083C23.8963 27.951 24.1543 27.768 24.3583 27.534C24.5683 27.294 24.7243 27.012 24.8263 26.688C24.9343 26.358 24.9883 26.001 24.9883 25.617C24.9883 24.909 24.7813 24.357 24.3673 23.961C23.9593 23.559 23.3533 23.358 22.5493 23.358C21.9313 23.358 21.2983 23.472 20.6503 23.7L19.2643 23.304L20.3443 16.986H26.7703V17.931C26.7703 18.249 26.6713 18.507 26.4733 18.705C26.2753 18.903 25.9393 19.002 25.4653 19.002H21.8923L21.4333 21.711Z" fill="#808080"/>
</svg>
