<svg width="46" height="60" viewBox="0 0 46 60" fill="none" xmlns="http://www.w3.org/2000/svg">
<path fill-rule="evenodd" clip-rule="evenodd" d="M20.7747 0.0388621C16.3619 0.494402 12.0728 2.25609 8.556 5.05765C4.43891 8.33741 1.46468 13.2273 0.377964 18.5034C-0.0568457 20.6143 -0.125945 24.0788 0.219856 26.4275C0.53895 28.5943 1.49709 31.589 2.60666 33.8872C4.51319 37.8363 6.98879 41.1599 13.491 48.5001C15.9022 51.222 16.6467 52.0805 17.9314 53.6198C19.6157 55.6379 20.3723 56.6258 22.0773 59.0332C22.9592 60.2782 23.0282 60.2874 23.7327 59.2529C24.3652 58.324 26.1314 55.9742 27.2902 54.5196C28.3915 53.1373 28.8853 52.5626 32.5681 48.3775C36.9524 43.3953 38.4093 41.6521 39.8653 39.6466C43.3955 34.784 45.3157 30.2188 45.8956 25.3095C46.0351 24.1286 46.0347 21.6885 45.8948 20.5364C45.4592 16.9481 44.3446 13.7445 42.4988 10.7754C39.6718 6.22784 35.2694 2.77186 30.1942 1.11598C28.601 0.596171 27.1605 0.283328 25.635 0.125926C24.5223 0.0111069 21.5579 -0.0419526 20.7747 0.0388621Z" fill="#4A59A9"/>
<rect x="7" y="7" width="32" height="32" rx="16" fill="white"/>
<path fill-rule="evenodd" clip-rule="evenodd" d="M16.3914 14.071C16.1745 14.2884 16.2993 14.7662 16.5932 14.8432C16.761 14.8872 16.8983 14.9503 16.8983 14.9833C16.8983 15.2352 15.0483 17.9793 14.5839 18.4163C14.0856 18.8854 14 19.0605 14 19.6122C14 20.996 15.6166 21.6952 16.5816 20.7287L17.0042 20.3054L17.3913 20.7287C17.7097 21.0769 17.9065 21.1519 18.5 21.1519C19.0935 21.1519 19.2903 21.0769 19.6087 20.7287L19.9958 20.3054L20.4184 20.7287C21.0223 21.3336 21.9369 21.3235 22.5541 20.7053L23 20.2587L23.4459 20.7053C24.0631 21.3235 24.9777 21.3336 25.5816 20.7287L26.0042 20.3054L26.3913 20.7287C26.7097 21.0769 26.9065 21.1519 27.5 21.1519C28.0935 21.1519 28.2903 21.0769 28.6087 20.7287L28.9958 20.3054L29.4184 20.7287C30.3834 21.6952 32 20.996 32 19.6122C32 19.0605 31.9144 18.8854 31.4161 18.4163C30.9517 17.9793 29.1017 15.2352 29.1017 14.9833C29.1017 14.9503 29.2445 14.8858 29.4188 14.8401C29.6469 14.7804 29.7219 14.6572 29.6858 14.4021L29.6356 14.0471L23.0651 14.0074C19.4514 13.9854 16.4483 14.0141 16.3914 14.071ZM16.6747 21.9465C16.5098 22.0423 16.1666 22.1634 15.912 22.2155L15.4492 22.3102L15.4089 27.1552L15.3686 32H16.6674H17.9661V28.4094V24.8189H20.178H22.3898V28.4094V32H26.5106H30.6314L30.5911 27.1552L30.5508 22.3102L30.0932 22.2159C29.8415 22.1641 29.48 22.0379 29.2898 21.9355C29.0074 21.7837 28.882 21.7928 28.6075 21.9854C28.1677 22.294 26.8331 22.2945 26.3938 21.9863C26.092 21.7747 26.0133 21.7747 25.6047 21.9863C25.0247 22.2867 24.0278 22.2876 23.45 21.9883C23.0467 21.7794 22.9533 21.7794 22.55 21.9883C21.9722 22.2876 20.9753 22.2867 20.3953 21.9863C19.9867 21.7747 19.908 21.7747 19.6062 21.9863C19.1747 22.2889 17.8174 22.2957 17.4232 21.9971C17.067 21.7273 17.0537 21.7264 16.6747 21.9465ZM28.7966 26.9579V29.097H26.5847H24.3729V26.9579V24.8189H26.5847H28.7966V26.9579Z" fill="#4A59A9"/>
</svg>
