<svg width="46" height="60" viewBox="0 0 46 60" fill="none" xmlns="http://www.w3.org/2000/svg">
<path fill-rule="evenodd" clip-rule="evenodd" d="M20.7747 0.0388621C16.3619 0.494402 12.0728 2.25609 8.556 5.05765C4.43891 8.33741 1.46468 13.2273 0.377964 18.5034C-0.0568457 20.6143 -0.125945 24.0788 0.219856 26.4275C0.53895 28.5943 1.49709 31.589 2.60666 33.8872C4.51319 37.8363 6.98879 41.1599 13.491 48.5001C15.9022 51.222 16.6467 52.0805 17.9314 53.6198C19.6157 55.6379 20.3723 56.6258 22.0773 59.0332C22.9592 60.2782 23.0282 60.2874 23.7327 59.2529C24.3652 58.324 26.1314 55.9742 27.2902 54.5196C28.3915 53.1373 28.8853 52.5626 32.5681 48.3775C36.9524 43.3953 38.4093 41.6521 39.8653 39.6466C43.3955 34.784 45.3157 30.2188 45.8956 25.3095C46.0351 24.1286 46.0347 21.6885 45.8948 20.5364C45.4592 16.9481 44.3446 13.7445 42.4988 10.7754C39.6718 6.22784 35.2694 2.77186 30.1942 1.11598C28.601 0.596171 27.1605 0.283328 25.635 0.125926C24.5223 0.0111069 21.5579 -0.0419526 20.7747 0.0388621Z" fill="#E8EC2F"/>
<rect x="7" y="7" width="32" height="32" rx="16" fill="white"/>
<path d="M26.6083 27.93C26.8483 27.93 27.0373 27.999 27.1753 28.137C27.3193 28.269 27.3913 28.446 27.3913 28.668V30H18.4633V29.262C18.4633 29.112 18.4933 28.956 18.5533 28.794C18.6193 28.626 18.7213 28.476 18.8593 28.344L22.8103 24.384C23.1403 24.048 23.4343 23.727 23.6923 23.421C23.9563 23.115 24.1753 22.812 24.3493 22.512C24.5233 22.212 24.6553 21.909 24.7453 21.603C24.8413 21.291 24.8893 20.964 24.8893 20.622C24.8893 20.31 24.8443 20.037 24.7543 19.803C24.6643 19.563 24.5353 19.362 24.3673 19.2C24.2053 19.038 24.0073 18.918 23.7733 18.84C23.5453 18.756 23.2873 18.714 22.9993 18.714C22.7353 18.714 22.4893 18.753 22.2613 18.831C22.0393 18.903 21.8413 19.008 21.6673 19.146C21.4933 19.278 21.3463 19.434 21.2263 19.614C21.1063 19.794 21.0163 19.992 20.9563 20.208C20.8543 20.484 20.7223 20.667 20.5603 20.757C20.3983 20.847 20.1643 20.868 19.8583 20.82L18.6883 20.613C18.7783 19.989 18.9523 19.443 19.2103 18.975C19.4683 18.501 19.7893 18.108 20.1733 17.796C20.5633 17.478 21.0073 17.241 21.5053 17.085C22.0093 16.923 22.5493 16.842 23.1253 16.842C23.7253 16.842 24.2743 16.932 24.7723 17.112C25.2703 17.286 25.6963 17.535 26.0503 17.859C26.4043 18.183 26.6803 18.573 26.8783 19.029C27.0763 19.485 27.1753 19.992 27.1753 20.55C27.1753 21.03 27.1033 21.474 26.9593 21.882C26.8213 22.29 26.6323 22.68 26.3923 23.052C26.1583 23.424 25.8823 23.784 25.5643 24.132C25.2463 24.48 24.9133 24.834 24.5653 25.194L21.6313 28.191C21.9133 28.107 22.1923 28.044 22.4683 28.002C22.7503 27.954 23.0173 27.93 23.2693 27.93H26.6083Z" fill="#E8EC2F"/>
</svg>
