<svg width="46" height="60" viewBox="0 0 46 60" fill="none" xmlns="http://www.w3.org/2000/svg">
<path fill-rule="evenodd" clip-rule="evenodd" d="M20.7747 0.0388621C16.3619 0.494402 12.0728 2.25609 8.556 5.05765C4.43891 8.33741 1.46468 13.2273 0.377964 18.5034C-0.0568457 20.6143 -0.125945 24.0788 0.219856 26.4275C0.53895 28.5943 1.49709 31.589 2.60666 33.8872C4.51319 37.8363 6.98879 41.1599 13.491 48.5001C15.9022 51.222 16.6467 52.0805 17.9314 53.6198C19.6157 55.6379 20.3723 56.6258 22.0773 59.0332C22.9592 60.2782 23.0282 60.2874 23.7327 59.2529C24.3652 58.324 26.1314 55.9742 27.2902 54.5196C28.3915 53.1373 28.8853 52.5626 32.5681 48.3775C36.9524 43.3953 38.4093 41.6521 39.8653 39.6466C43.3955 34.784 45.3157 30.2188 45.8956 25.3095C46.0351 24.1286 46.0347 21.6885 45.8948 20.5364C45.4592 16.9481 44.3446 13.7445 42.4988 10.7754C39.6718 6.22784 35.2694 2.77186 30.1942 1.11598C28.601 0.596171 27.1605 0.283328 25.635 0.125926C24.5223 0.0111069 21.5579 -0.0419526 20.7747 0.0388621Z" fill="#26B91C"/>
<rect x="7" y="7" width="32" height="32" rx="16" fill="white"/>
<path d="M27.0943 28.335V30H19.8943V28.335H22.5313V20.748C22.5313 20.448 22.5403 20.139 22.5583 19.821L20.6863 21.387C20.5783 21.471 20.4703 21.525 20.3623 21.549C20.2603 21.567 20.1613 21.567 20.0653 21.549C19.9753 21.531 19.8943 21.501 19.8223 21.459C19.7503 21.411 19.6963 21.36 19.6603 21.306L18.9583 20.343L22.9273 16.968H24.7543V28.335H27.0943Z" fill="#26B91C"/>
</svg>
