<svg width="46" height="60" viewBox="0 0 46 60" fill="none" xmlns="http://www.w3.org/2000/svg">
<path fill-rule="evenodd" clip-rule="evenodd" d="M20.7747 0.0388621C16.3619 0.494402 12.0728 2.25609 8.556 5.05765C4.43891 8.33741 1.46468 13.2273 0.377964 18.5034C-0.0568457 20.6143 -0.125945 24.0788 0.219856 26.4275C0.53895 28.5943 1.49709 31.589 2.60666 33.8872C4.51319 37.8363 6.98879 41.1599 13.491 48.5001C15.9022 51.222 16.6467 52.0805 17.9314 53.6198C19.6157 55.6379 20.3723 56.6258 22.0773 59.0332C22.9592 60.2782 23.0282 60.2874 23.7327 59.2529C24.3652 58.324 26.1314 55.9742 27.2902 54.5196C28.3915 53.1373 28.8853 52.5626 32.5681 48.3775C36.9524 43.3953 38.4093 41.6521 39.8653 39.6466C43.3955 34.784 45.3157 30.2188 45.8956 25.3095C46.0351 24.1286 46.0347 21.6885 45.8948 20.5364C45.4592 16.9481 44.3446 13.7445 42.4988 10.7754C39.6718 6.22784 35.2694 2.77186 30.1942 1.11598C28.601 0.596171 27.1605 0.283328 25.635 0.125926C24.5223 0.0111069 21.5579 -0.0419526 20.7747 0.0388621Z" fill="#4D516C"/>
<rect x="7" y="7" width="32" height="32" rx="16" fill="white"/>
<path fill-rule="evenodd" clip-rule="evenodd" d="M22.4462 13.0484C22.1869 13.1341 22.0698 13.2361 22.0023 13.4353C21.9266 13.6583 22.0157 13.9755 22.2165 14.1983C22.3912 14.3921 22.4125 14.3805 21.7581 14.4466C20.3167 14.5922 19.1031 15.1118 19.0091 15.6235L18.979 15.7874L22.9812 15.7859C25.4025 15.785 26.9949 15.768 27.0124 15.7429C27.0533 15.6845 26.904 15.3856 26.772 15.2615C26.3725 14.8858 25.1838 14.5134 24.1216 14.4313C23.6113 14.3918 23.5951 14.3854 23.7226 14.2727C23.8829 14.131 24.0187 13.8321 24.0199 13.6179C24.0214 13.3567 23.9022 13.1721 23.6783 13.0888C23.4181 12.992 22.6894 12.9681 22.4462 13.0484ZM17.7515 16.1179C17.4947 16.2166 17.4183 16.3615 17.443 16.7034C17.4668 17.0344 17.5454 17.1256 17.8775 17.2071C18.1503 17.274 27.9226 17.2694 28.1496 17.2022C28.474 17.1062 28.5469 17.0076 28.5469 16.6645C28.5469 16.2903 28.506 16.2172 28.2456 16.125C28.0624 16.0603 27.5319 16.0532 22.9766 16.0548C18.7821 16.0563 17.8837 16.0671 17.7515 16.1179ZM17.9494 17.6639C17.7236 17.8789 17.1587 18.6766 16.9032 19.1414C15.1908 22.2556 15.9079 25.8033 19.1015 30.0172L19.4972 30.5394H23.0112H26.5251L26.974 29.9284C28.2028 28.2556 28.9287 26.9719 29.4427 25.5625C30.4737 22.735 30.0717 20.1386 28.2577 17.9083L27.9776 17.5639H23.016H18.0544L17.9494 17.6639ZM23.5182 19.608V20.3634H24.5239H25.5296V20.83V21.2966H24.5239H23.5182V23.1185V24.9404H23.0153H22.5124V23.1185V21.2966H21.5101H20.5078L20.4918 20.8734C20.483 20.6407 20.4833 20.4307 20.4925 20.4069C20.5027 20.3805 20.9034 20.3634 21.5108 20.3634H22.5124V19.608V18.8526H23.0153H23.5182V19.608ZM18.9431 30.8556C18.6772 30.9493 18.6403 31.0162 18.6403 31.405C18.6403 31.7379 18.6511 31.7771 18.7701 31.8758L18.8998 31.9836L22.9313 31.9955C27.1619 32.008 27.1615 32.008 27.3168 31.812C27.4044 31.7016 27.4176 31.1563 27.3359 31.0215C27.2051 30.8055 27.2113 30.8058 23.0043 30.8088C20.5338 30.8106 19.0213 30.828 18.9431 30.8556Z" fill="#4D516C"/>
</svg>
