<svg width="46" height="60" viewBox="0 0 46 60" fill="none" xmlns="http://www.w3.org/2000/svg">
<path fill-rule="evenodd" clip-rule="evenodd" d="M20.7747 0.0388621C16.3619 0.494402 12.0728 2.25609 8.556 5.05765C4.43891 8.33741 1.46468 13.2273 0.377964 18.5034C-0.0568457 20.6143 -0.125945 24.0788 0.219856 26.4275C0.53895 28.5943 1.49709 31.589 2.60666 33.8872C4.51319 37.8363 6.98879 41.1599 13.491 48.5001C15.9022 51.222 16.6467 52.0805 17.9314 53.6198C19.6157 55.6379 20.3723 56.6258 22.0773 59.0332C22.9592 60.2782 23.0282 60.2874 23.7327 59.2529C24.3652 58.324 26.1314 55.9742 27.2902 54.5196C28.3915 53.1373 28.8853 52.5626 32.5681 48.3775C36.9524 43.3953 38.4093 41.6521 39.8653 39.6466C43.3955 34.784 45.3157 30.2188 45.8956 25.3095C46.0351 24.1286 46.0347 21.6885 45.8948 20.5364C45.4592 16.9481 44.3446 13.7445 42.4988 10.7754C39.6718 6.22784 35.2694 2.77186 30.1942 1.11598C28.601 0.596171 27.1605 0.283328 25.635 0.125926C24.5223 0.0111069 21.5579 -0.0419526 20.7747 0.0388621Z" fill="#4D516C"/>
<rect x="7" y="7" width="32" height="32" rx="16" fill="white"/>
<path fill-rule="evenodd" clip-rule="evenodd" d="M20.154 13.0079C18.9772 13.0211 18.9261 13.0232 18.7855 13.0649C18.3389 13.1973 17.9863 13.5101 17.7819 13.9551C17.6672 14.2048 17.6188 14.4094 17.6047 14.7037C17.5952 14.901 17.5984 14.9448 17.627 15.01C17.6853 15.1432 17.8095 15.218 18.0263 15.2503L18.1136 15.2633V17.764V20.2647L17.2359 20.2658C16.7531 20.2664 16.1141 20.2747 15.8158 20.2843C15.352 20.2991 15.2541 20.3076 15.1391 20.3434C14.7133 20.4758 14.3545 20.8059 14.1629 21.2416C14.0582 21.4796 14.0143 21.682 14.0028 21.9792C13.9914 22.2775 14.0097 22.3333 14.1501 22.4268C14.2207 22.4738 14.2661 22.4881 14.363 22.4941L14.4863 22.5016L14.4985 25.6245C14.5052 27.342 14.5107 29.2707 14.5107 29.9104V31.0734L14.5971 31.256C14.6679 31.4056 14.7153 31.473 14.8591 31.6285C14.9738 31.7526 15.0742 31.8409 15.1488 31.8834C15.2608 31.9472 15.2696 31.9489 15.6013 31.9667C16.6234 32.0218 30.3724 32.0038 30.6581 31.947C30.8687 31.9051 31.1327 31.7123 31.2826 31.4908C31.3187 31.4376 31.3855 31.3121 31.4311 31.2119L31.514 31.0299L31.514 28.3934C31.514 26.9434 31.5195 25.0236 31.5262 24.1272L31.5384 22.4975H31.6513C31.7446 22.4975 31.7789 22.4874 31.8494 22.4388C31.9855 22.3453 32.0013 22.2958 31.9999 21.9692C31.9985 21.6317 31.969 21.4833 31.8535 21.2316C31.6224 20.7281 31.1746 20.3736 30.6827 20.3046C30.5957 20.2924 29.97 20.2779 29.2209 20.2708L27.9111 20.2584V17.7609V15.2633L27.9985 15.2503C28.2212 15.2171 28.326 15.153 28.3894 15.011C28.4269 14.9269 28.4293 14.9021 28.4171 14.7162C28.3767 14.0969 28.1207 13.595 27.6814 13.2738C27.4245 13.0861 27.3168 13.0575 26.7573 13.0293C26.269 13.0047 21.7515 12.99 20.154 13.0079ZM26.2451 15.3539L26.3436 15.467L26.3553 16.2959C26.3617 16.7518 26.3723 18.2966 26.3788 19.7287L26.3907 22.3326L26.4534 22.3868C26.4879 22.4167 26.5425 22.4506 26.5748 22.4623C26.6128 22.476 27.1464 22.4889 28.0858 22.4987C29.755 22.5161 29.8462 22.5243 29.9188 22.6622C29.9376 22.6979 29.9435 23.4458 29.9479 26.4032L29.9535 30.0995L29.856 30.207L29.7585 30.3144L26.8634 30.3063C25.1547 30.3016 23.9421 30.2906 23.9045 30.2797C23.8523 30.2644 23.8381 30.2485 23.8258 30.192C23.8175 30.154 23.8032 29.5039 23.7941 28.7473C23.7841 27.9188 23.7697 27.3321 23.7579 27.2721C23.7319 27.1405 23.6911 27.083 23.5812 27.0233C23.4953 26.9766 23.4701 26.9734 23.1221 26.9662C22.5752 26.955 22.3721 26.9991 22.3039 27.1442C22.2457 27.268 22.2332 27.532 22.2237 28.837C22.2186 29.5383 22.2071 30.0963 22.1968 30.1406C22.1671 30.2678 22.1522 30.2748 21.8701 30.2935C21.73 30.3027 20.4115 30.3107 18.9401 30.3113L16.265 30.3123L16.1685 30.2063L16.072 30.1003L16.0786 26.4335C16.0822 24.4167 16.0916 22.7423 16.0995 22.7126C16.1075 22.6829 16.1399 22.6275 16.1717 22.5895L16.2294 22.5204L17.862 22.4986L19.4946 22.4768L19.539 22.4224C19.5634 22.3924 19.593 22.3365 19.6046 22.2982C19.62 22.2476 19.63 21.3753 19.6409 19.1284C19.6494 17.3811 19.6642 15.9134 19.6748 15.7648C19.699 15.424 19.7345 15.3332 19.8599 15.2909C19.9125 15.2731 22.1933 15.2507 24.5427 15.2449L26.1465 15.241L26.2451 15.3539ZM22.8625 16.3592C22.6332 16.4008 22.4459 16.5183 22.3562 16.677C22.2628 16.8423 22.2458 16.9594 22.2334 17.5236L22.2219 18.0419L21.7164 18.0535C21.1029 18.0676 21.0657 18.0767 20.9038 18.2521C20.7344 18.436 20.7149 18.4995 20.7147 18.8692C20.7146 19.1513 20.7184 19.1873 20.758 19.2822C20.8429 19.4858 21.0629 19.6479 21.306 19.6861C21.3751 19.6969 21.6061 19.7059 21.8195 19.7061L22.2074 19.7065L22.2191 19.8411C22.2256 19.9151 22.2313 20.0833 22.2318 20.2149C22.2333 20.5942 22.258 20.848 22.3035 20.9499C22.4438 21.2642 22.749 21.4104 23.1594 21.3599C23.4261 21.3271 23.6102 21.19 23.7151 20.9461C23.7666 20.8263 23.7914 20.5385 23.7928 20.0421C23.7932 19.8922 23.7986 19.7554 23.8048 19.7381C23.8144 19.7107 23.8673 19.7065 24.2046 19.7061C24.6641 19.7057 24.8051 19.6871 24.9495 19.608C25.2981 19.4172 25.4323 18.8896 25.244 18.4506C25.1721 18.2832 25.0381 18.1432 24.9099 18.102C24.8491 18.0824 24.6986 18.0683 24.4753 18.0613C24.2874 18.0554 24.0571 18.0455 23.9636 18.0394L23.7936 18.0282L23.7933 17.6463C23.7929 17.1674 23.77 16.9205 23.7138 16.7872C23.6244 16.5756 23.396 16.402 23.1499 16.3587C23.0158 16.3351 22.9955 16.3351 22.8625 16.3592ZM17.3519 23.655C17.1721 23.6876 17.1054 23.788 17.0845 24.0578C17.0766 24.1591 17.0743 24.5559 17.0794 24.9396L17.0886 25.6374L17.137 25.694C17.1636 25.7251 17.2225 25.7744 17.268 25.8036L17.3507 25.8567H17.8562H18.3617L18.4445 25.8036C18.49 25.7744 18.5489 25.7251 18.5754 25.694L18.6236 25.6374L18.6354 24.7733L18.6472 23.9092L18.5412 23.7719L18.4353 23.6346L17.939 23.6365C17.666 23.6376 17.4018 23.6459 17.3519 23.655ZM19.9192 23.6527C19.8191 23.6703 19.7501 23.7254 19.7036 23.8245C19.6685 23.8994 19.6669 23.9424 19.6669 24.7768V25.6506L19.7496 25.7281C19.8822 25.8524 19.9052 25.8567 20.4481 25.8567C20.917 25.8567 20.9379 25.855 21.0087 25.8124C21.0492 25.788 21.1081 25.7421 21.1397 25.7102L21.1971 25.6524L21.2108 24.7828L21.2245 23.9132L21.1191 23.7735L21.0138 23.6338L20.5058 23.6363C20.2263 23.6377 19.9624 23.6451 19.9192 23.6527ZM22.4955 23.6523C22.3925 23.6706 22.3314 23.7182 22.2819 23.8185C22.2405 23.9026 22.2403 23.9069 22.2408 24.7757L22.2412 25.6485L22.3235 25.7268C22.4555 25.8525 22.4779 25.8567 23.0216 25.8567C23.5592 25.8567 23.5612 25.8563 23.706 25.7213L23.7747 25.6573L23.7862 24.7801L23.7976 23.903L23.6931 23.7684L23.5886 23.6338L23.0799 23.6363C22.8001 23.6377 22.5371 23.6449 22.4955 23.6523ZM25.1447 23.6523C25.0436 23.6587 24.9496 23.6718 24.9358 23.6814C24.888 23.7146 24.8414 23.8695 24.8234 24.0552C24.8134 24.1579 24.8051 24.5516 24.8049 24.9302L24.8046 25.6186L24.9219 25.7447L25.0392 25.8708L25.5607 25.8627C26.1344 25.8538 26.1452 25.8517 26.2818 25.723L26.3527 25.6561L26.365 24.7895L26.3774 23.9229L26.3311 23.8531C26.3057 23.8148 26.2569 23.7497 26.2227 23.7086L26.1606 23.6338L25.7445 23.6372C25.5157 23.639 25.2458 23.6458 25.1447 23.6523ZM27.6467 23.6541C27.5368 23.675 27.4427 23.7656 27.4099 23.8823C27.3931 23.942 27.3886 24.1811 27.3926 24.8067L27.398 25.6507L27.4478 25.6992C27.4751 25.726 27.5348 25.7723 27.5803 25.8022L27.663 25.8567H28.1317C28.3895 25.8567 28.6311 25.8496 28.6686 25.841C28.7061 25.8323 28.7789 25.7892 28.8303 25.7451L28.9239 25.6649L28.9184 24.7608L28.913 23.8568L28.8561 23.7802C28.7568 23.6463 28.7471 23.6442 28.2144 23.6405C27.9516 23.6386 27.6961 23.6448 27.6467 23.6541ZM17.4202 26.9822C17.269 27.0078 17.1922 27.0601 17.1393 27.1734L17.0934 27.2721L17.0934 28.0795C17.0935 28.9274 17.099 28.9953 17.1772 29.1031C17.2428 29.1935 17.3252 29.2058 17.8654 29.2058C18.3609 29.2058 18.3619 29.2058 18.4429 29.156C18.5338 29.1002 18.5815 29.0171 18.6095 28.866C18.6395 28.7044 18.6528 27.9179 18.6313 27.5736C18.6069 27.1812 18.5781 27.1002 18.4353 27.023C18.3462 26.9749 18.3304 26.9732 17.9298 26.9697C17.7023 26.9676 17.473 26.9733 17.4202 26.9822ZM20.0031 26.9836C19.843 27.0106 19.761 27.0647 19.7101 27.1767C19.6678 27.27 19.6667 27.286 19.6609 27.925C19.6546 28.6211 19.6719 28.9289 19.7239 29.0478C19.7471 29.1009 19.7796 29.1333 19.8402 29.1637C19.9193 29.2034 19.9538 29.2058 20.4297 29.2058C20.9065 29.2058 20.9394 29.2035 21.0087 29.1642C21.0975 29.114 21.1551 29.027 21.1833 28.901C21.2139 28.7636 21.2286 27.7368 21.2037 27.4718C21.1768 27.1856 21.1361 27.0919 21.0087 27.0231C20.92 26.9751 20.903 26.9733 20.5124 26.9696C20.29 26.9675 20.0608 26.9738 20.0031 26.9836ZM25.1366 26.9848C24.837 27.0415 24.7935 27.2082 24.8098 28.239C24.8213 28.969 24.8428 29.0612 25.0252 29.1607C25.105 29.2043 25.1252 29.2058 25.6042 29.2058C26.1719 29.2058 26.2 29.1992 26.3024 29.0397L26.3579 28.9533L26.3635 28.2285C26.3666 27.8299 26.3612 27.4249 26.3514 27.3286C26.3354 27.1702 26.3283 27.1484 26.2776 27.0992C26.1735 26.9983 26.0677 26.9774 25.6318 26.9713C25.4144 26.9683 25.1916 26.9744 25.1366 26.9848ZM27.7455 26.9841C27.6897 26.993 27.6231 27.009 27.5974 27.0196C27.5151 27.0535 27.4346 27.1423 27.4169 27.2187C27.3878 27.3438 27.3771 27.907 27.3937 28.432C27.4087 28.9025 27.4125 28.94 27.4536 29.03C27.4855 29.0998 27.5177 29.137 27.5711 29.166C27.6393 29.203 27.6814 29.2058 28.1593 29.2058C28.667 29.2058 28.675 29.2052 28.7499 29.1586C28.8431 29.1007 28.8941 29.0061 28.9218 28.84C28.9477 28.6842 28.9491 27.5012 28.9236 27.3372C28.8872 27.1038 28.8187 27.0242 28.6201 26.9847C28.4961 26.9601 27.8984 26.9597 27.7455 26.9841Z" fill="#4D516C"/>
</svg>
