<svg width="36" height="46" viewBox="0 0 36 46" fill="none" xmlns="http://www.w3.org/2000/svg">
<path d="M25.5223 0H1.22484C0.548372 0 0 0.533357 0 1.56831V44.7857C0 45.0666 0.548372 45.6 1.22484 45.6H34.7752C35.4516 45.6 36 45.0666 36 44.7857V10.5678C36 10.0011 35.9221 9.81866 35.7848 9.6843L26.0431 0.209271C25.9049 0.0757286 25.7174 0 25.5223 0Z" fill="#E9E9E0"/>
<path d="M25.9531 0.123047V9.77152H35.8732L25.9531 0.123047Z" fill="#D9D7CA"/>
<path d="M10.8933 27.1352C10.6019 27.1352 10.3223 27.0432 10.0837 26.8697C9.21216 26.2338 9.09494 25.5261 9.1502 25.0441C9.30257 23.7184 10.9879 22.3309 14.1609 20.9173C15.4201 18.2334 16.6181 14.9266 17.3322 12.1637C16.4967 10.3951 15.6846 8.10043 16.2765 6.75441C16.4842 6.28294 16.7429 5.9214 17.2259 5.76506C17.4168 5.70317 17.899 5.625 18.0765 5.625C18.4985 5.625 18.8694 6.15347 19.1322 6.47919C19.3792 6.78536 19.9393 7.43434 18.82 12.018C19.9485 14.2849 21.5476 16.5942 23.0797 18.1756C24.1773 17.9826 25.1216 17.8841 25.891 17.8841C27.2021 17.8841 27.9966 18.1813 28.3206 18.7936C28.5885 19.3001 28.4788 19.8921 27.9941 20.5525C27.5278 21.1868 26.8848 21.5223 26.1355 21.5223C25.1175 21.5223 23.932 20.8969 22.61 19.6617C20.2348 20.1445 17.4612 21.006 15.2191 21.9596C14.5192 23.4041 13.8486 24.5677 13.2241 25.4211C12.3659 26.5896 11.6258 27.1352 10.8933 27.1352ZM13.1219 22.9611C11.3328 23.9391 10.6036 24.7428 10.5509 25.1955C10.5425 25.2705 10.5199 25.4675 10.9117 25.759C11.0364 25.7208 11.7648 25.3975 13.1219 22.9611ZM24.5389 19.3441C25.2213 19.8546 25.3879 20.1128 25.8341 20.1128C26.03 20.1128 26.5884 20.1046 26.8471 19.7537C26.9719 19.5835 27.0204 19.4744 27.0397 19.4157C26.9367 19.3628 26.8002 19.2553 26.056 19.2553C25.6332 19.2561 25.1015 19.2741 24.5389 19.3441ZM18.285 13.9845C17.6864 15.999 16.8961 18.174 16.0463 20.1437C17.7961 19.4833 19.6982 18.9068 21.4848 18.4989C20.3546 17.2221 19.2252 15.6277 18.285 13.9845ZM17.7768 7.09397C17.6948 7.12084 16.6633 8.52467 17.8572 9.71272C18.6517 7.9905 17.8128 7.08257 17.7768 7.09397Z" fill="#CC4B4C"/>
<path d="M34.7752 45.6007H1.22484C0.548372 45.6007 0 45.0673 0 44.4094V31.7578H36V44.4094C36 45.0673 35.4516 45.6007 34.7752 45.6007Z" fill="#CC4B4C"/>
<path d="M9.11019 43.1579H7.73633V34.9531H10.1626C10.5209 34.9531 10.8759 35.0085 11.2267 35.1201C11.5774 35.2316 11.8922 35.3985 12.171 35.6208C12.4498 35.8431 12.675 36.1127 12.8467 36.4278C13.0183 36.7429 13.1045 37.0971 13.1045 37.4913C13.1045 37.9074 13.0317 38.2836 12.8868 38.6215C12.742 38.9594 12.5394 39.2436 12.2799 39.4732C12.0203 39.7029 11.7072 39.8812 11.3414 40.0074C10.9755 40.1336 10.5703 40.1963 10.1282 40.1963H9.10935V43.1579H9.11019ZM9.11019 35.9661V39.2167H10.3694C10.5368 39.2167 10.7026 39.189 10.8675 39.1329C11.0316 39.0775 11.1823 38.9863 11.3196 38.8601C11.4569 38.7339 11.5674 38.558 11.6511 38.3316C11.7348 38.1052 11.7767 37.8251 11.7767 37.4913C11.7767 37.3577 11.7574 37.203 11.7198 37.0296C11.6813 36.8553 11.6034 36.6884 11.4854 36.5288C11.3665 36.3692 11.2007 36.2356 10.9872 36.1281C10.7737 36.0207 10.4907 35.9669 10.14 35.9669H9.11019V35.9661Z" fill="white"/>
<path d="M21.5275 38.8275C21.5275 39.5025 21.453 40.0799 21.304 40.5587C21.1549 41.0375 20.9666 41.4381 20.7372 41.7614C20.5078 42.0846 20.2508 42.3387 19.9644 42.5244C19.6781 42.71 19.4018 42.8484 19.1348 42.9421C18.8677 43.0349 18.6232 43.0944 18.4022 43.1204C18.1812 43.1448 18.0171 43.1579 17.9099 43.1579H14.7168V34.9531H17.2577C17.9677 34.9531 18.5914 35.0631 19.1289 35.2813C19.6664 35.4995 20.1134 35.7918 20.4684 36.155C20.8234 36.5182 21.088 36.9327 21.2638 37.396C21.4396 37.8601 21.5275 38.3373 21.5275 38.8275ZM17.4528 42.1783C18.3838 42.1783 19.0552 41.8892 19.4671 41.3103C19.879 40.7313 20.085 39.8926 20.085 38.7941C20.085 38.4529 20.0431 38.115 19.9594 37.7811C19.8748 37.4473 19.7133 37.1452 19.473 36.874C19.2327 36.6029 18.9062 36.3838 18.4943 36.2169C18.0824 36.05 17.5482 35.9661 16.8919 35.9661H16.0907V42.1783H17.4528Z" fill="white"/>
<path d="M24.9199 35.9661V38.549H28.4454V39.4618H24.9199V43.1579H23.5234V34.9531H28.7995V35.9661H24.9199Z" fill="white"/>
</svg>
