<svg viewBox="0 0 9 7" xmlns="http://www.w3.org/2000/svg">
  <path d="M0.145297 3.1113C0.339032 2.87479 0.653138 2.87479 0.846873 3.1113L3.66823 5.96614C3.86196 6.20265 3.86196 6.58611 3.66823 6.82262C3.47449 7.05913 3.16039 7.05913 2.96665 6.82262L0.145297 3.96777C-0.0484381 3.73126 -0.0484381 3.34781 0.145297 3.1113Z"/>
  <path d="M2.96665 6.82262C2.77292 6.58611 2.77292 6.20265 2.96665 5.96614L8.15312 0.177382C8.34686 -0.0591273 8.66096 -0.0591273 8.8547 0.177382C9.04843 0.413891 9.04843 0.797349 8.8547 1.03386L3.66823 6.82262C3.47449 7.05913 3.16039 7.05913 2.96665 6.82262Z"/>
</svg>
