<svg viewBox="0 0 181 180" xmlns="http://www.w3.org/2000/svg">
  <path fill-rule="evenodd" clip-rule="evenodd" d="M133 1.64942C126.535 3.88142 120.361 8.96442 104.227 25.3394C89.286 40.5044 86.877 44.1044 84.98 54.1044C83.946 59.5574 84.664 69.2974 86.063 68.7894C86.5 68.6304 97.685 57.8274 110.918 44.7814C124.151 31.7364 136.407 20.3244 138.153 19.4214C145.581 15.5794 157.379 19.8774 160.606 27.6004C162.447 32.0054 162.377 39.3184 160.456 43.3004C159.607 45.0604 148.02 57.1584 134.706 70.1854C116.299 88.1964 110.777 94.1514 111.656 95.0414C112.418 95.8134 115.677 96.0914 121.211 95.8564C134.557 95.2904 139.447 92.2864 158.301 73.0774C175.198 55.8604 179.415 49.4104 180.598 38.9644C182.364 23.3724 171.677 6.65942 156.715 1.61442C150.684 -0.419578 138.943 -0.402579 133 1.64942ZM83.767 83.7674C53.943 113.59 51 116.831 51 119.844C51 126.996 59.892 131.439 66.027 127.353C70.122 124.627 127.028 67.7104 128.57 64.8004C130.677 60.8214 130.323 57.5374 127.411 54.0774C125.287 51.5534 124.078 51.0004 120.678 51.0004C116.57 51.0004 116.247 51.2874 83.767 83.7674ZM51.929 84.3084C43.914 86.5734 38.874 90.4654 22.301 107.188C3.82699 125.83 0.87499 130.494 0.18199 142.129C-1.13601 164.282 16.407 181.384 38.803 179.782C51.077 178.904 55.232 176.222 73.787 157.198C86.548 144.115 90.722 139.155 93.071 134.285C96.334 127.52 97.754 117.677 96.213 112.5L95.321 109.5L71.251 133.677C58.013 146.975 45.678 158.639 43.841 159.598C39.212 162.013 32.37 161.947 27.5 159.442C20.575 155.879 17.034 145.345 20.061 137.315C20.645 135.767 32.166 123.417 45.663 109.872C61.26 94.2194 69.777 84.9804 69.034 84.5214C66.813 83.1494 56.486 83.0204 51.929 84.3084Z"/>
</svg>
