<svg viewBox="0 0 18 20" xmlns="http://www.w3.org/2000/svg">
  <path fill-rule="evenodd" clip-rule="evenodd" d="M13.1554 0.0168461C12.2363 0.10744 11.3194 0.69278 10.8072 1.51591C10.6236 1.81101 10.4442 2.24387 10.3779 2.55199L10.3526 2.66927L5.40772 2.6745L0.462801 2.67973L0.347475 2.74031C0.129958 2.85458 0 3.0752 0 3.33022C0 3.58471 0.117473 3.78936 0.334792 3.9134L0.462801 3.98647L5.40774 3.99178L10.3527 3.99707L10.3779 4.11429C10.4466 4.43336 10.6324 4.87383 10.8238 5.17165C11.1316 5.65022 11.5474 6.03512 12.0338 6.29145C13.0947 6.85061 14.3056 6.77831 15.2951 6.09672C15.5674 5.90912 15.9672 5.50011 16.1465 5.22571C16.3654 4.89064 16.5898 4.36222 16.6335 4.07888L16.6457 3.99944L17.0816 3.99296C17.5055 3.98665 17.5206 3.98498 17.6287 3.9324C17.7645 3.86641 17.8774 3.75287 17.9414 3.61809C17.9813 3.53383 17.9894 3.48605 17.9898 3.3331C17.9902 3.11518 17.9466 3.00102 17.808 2.85728C17.6511 2.69465 17.5999 2.68118 17.0953 2.66952L16.6534 2.65931L16.6267 2.54701C16.4325 1.72795 15.9553 1.02132 15.2817 0.555225C14.66 0.124979 13.9309 -0.0596189 13.1554 0.0168461ZM13.7856 1.35175C14.9228 1.53153 15.6526 2.66921 15.3712 3.82335C15.2817 4.19012 15.1166 4.48261 14.8408 4.76235C14.5622 5.04506 14.255 5.21238 13.8636 5.2946C13.6427 5.34101 13.2313 5.32619 13.0077 5.26377C12.4815 5.11693 12.0166 4.71968 11.7757 4.21107C11.6207 3.88379 11.5921 3.74554 11.5919 3.32289C11.5917 2.99045 11.5955 2.95284 11.646 2.78255C11.8498 2.09557 12.3454 1.58508 12.9851 1.40312C13.2724 1.32141 13.5009 1.30675 13.7856 1.35175ZM4.00961 6.70238C3.15825 6.84571 2.41744 7.31363 1.89892 8.03548C1.68499 8.33332 1.41095 8.95535 1.36639 9.24426L1.35443 9.32181L0.928319 9.33073C0.436018 9.34104 0.374534 9.35599 0.215646 9.50408C0.160838 9.55518 0.0921466 9.64392 0.063 9.70127C0.0162867 9.79328 0.0100438 9.82844 0.0100438 9.99954C0.0100438 10.1706 0.0162867 10.2058 0.063 10.2978C0.0921466 10.3552 0.160838 10.4439 0.215646 10.495C0.374534 10.6431 0.436018 10.658 0.928319 10.6683L1.35443 10.6773L1.36639 10.7548C1.40928 11.0329 1.66216 11.6181 1.87383 11.929C2.03632 12.1678 2.40227 12.546 2.63895 12.7198C2.98646 12.9751 3.42043 13.1697 3.86874 13.2713C4.03972 13.3101 4.12584 13.3162 4.5 13.3158C4.87146 13.3154 4.96178 13.309 5.13311 13.2705C5.69099 13.1453 6.19803 12.8822 6.62691 12.4955C7.10196 12.0672 7.47549 11.4227 7.62075 10.7808L7.64496 10.6738L12.5714 10.6685C17.4457 10.6632 17.4989 10.6627 17.5963 10.6223C17.8258 10.5271 18 10.2584 18 9.99954C18 9.73999 17.8226 9.46565 17.5963 9.37528C17.5002 9.3369 17.3809 9.33584 12.5726 9.33061L7.64738 9.32528L7.60386 9.14701C7.54543 8.90779 7.41919 8.5844 7.3002 8.36907C6.82606 7.51105 6.07254 6.94025 5.13579 6.72947C4.89084 6.67436 4.26541 6.65932 4.00961 6.70238ZM4.83075 8.02905C5.20497 8.09671 5.54071 8.27476 5.82196 8.55471C6.22449 8.95537 6.42013 9.4279 6.42013 9.99954C6.42013 10.5593 6.2342 11.015 5.84112 11.4186C5.47982 11.7895 5.08921 11.9689 4.58862 11.9939C3.67421 12.0396 2.86062 11.4186 2.6256 10.4956C2.58204 10.3245 2.57467 10.2528 2.57467 9.99954C2.57467 9.74693 2.58207 9.67438 2.62516 9.50526C2.88356 8.49082 3.84089 7.85009 4.83075 8.02905ZM10.6543 13.3479C9.25062 13.4878 8.14502 14.4818 7.79851 15.9154L7.7776 16.002L4.13003 16.0073L0.482495 16.0126L0.371265 16.0667C0.14333 16.1775 0.0153217 16.3754 0.00350547 16.6354C-0.00200875 16.7567 0.00573085 16.8138 0.0406871 16.9104C0.0997877 17.0735 0.245422 17.2256 0.400155 17.2856L0.513512 17.3296H4.14587H7.77824L7.79018 17.3857C7.79674 17.4166 7.82878 17.5334 7.86135 17.6453C8.2503 18.9808 9.40429 19.9154 10.7626 19.995C11.1563 20.0181 11.5695 19.9607 11.9486 19.8301C12.9383 19.4893 13.713 18.6564 14.0083 17.6154C14.0354 17.52 14.0629 17.4168 14.0695 17.3861L14.0815 17.3304L15.8094 17.3249L17.5372 17.3194L17.6499 17.262C17.7736 17.199 17.8772 17.0873 17.9457 16.9432C18.0102 16.8076 18.009 16.5235 17.9434 16.3855C17.8797 16.2515 17.7606 16.1308 17.6289 16.0667L17.5175 16.0126L15.7999 16.0071L14.0823 16.0015L14.0612 15.9152C13.8861 15.1953 13.5151 14.5677 13.0017 14.1227C12.4408 13.6366 11.7859 13.3747 11.0481 13.3414C10.9236 13.3358 10.7463 13.3387 10.6543 13.3479ZM11.4316 14.7355C11.7538 14.8273 12.0173 14.9864 12.2759 15.2454C12.6279 15.5979 12.8268 16.0486 12.8539 16.5552C12.9068 17.543 12.2743 18.4054 11.3337 18.628C11.1206 18.6784 10.7405 18.6785 10.5263 18.6283C9.58957 18.4086 8.95327 17.5409 9.00603 16.5552C9.03314 16.0486 9.23201 15.5979 9.58405 15.2454C9.87666 14.9524 10.1713 14.7884 10.5558 14.7046C10.7527 14.6617 11.2315 14.6786 11.4316 14.7355Z"/>
</svg>
