<svg width="13" height="9" viewBox="0 0 13 9" fill="none" xmlns="http://www.w3.org/2000/svg">
<path d="M2.58606 9.00022H0.966064V0.324219H2.58606V9.00022Z" fill="white"/>
<path d="M12.2326 4.66222C12.2326 5.29822 12.1266 5.88222 11.9146 6.41422C11.7026 6.94622 11.4046 7.40422 11.0206 7.78822C10.6366 8.17222 10.1746 8.47022 9.63457 8.68222C9.09457 8.89422 8.49456 9.00022 7.83456 9.00022H4.52856V0.324219H7.83456C8.49456 0.324219 9.09457 0.432219 9.63457 0.648219C10.1746 0.860219 10.6366 1.15822 11.0206 1.54222C11.4046 1.92222 11.7026 2.37822 11.9146 2.91022C12.1266 3.44222 12.2326 4.02622 12.2326 4.66222ZM10.5766 4.66222C10.5766 4.18622 10.5126 3.76022 10.3846 3.38422C10.2606 3.00422 10.0786 2.68422 9.83856 2.42422C9.60256 2.16022 9.31456 1.95822 8.97456 1.81822C8.63856 1.67822 8.25856 1.60822 7.83456 1.60822H6.14856V7.71622H7.83456C8.25856 7.71622 8.63856 7.64622 8.97456 7.50622C9.31456 7.36622 9.60256 7.16622 9.83856 6.90622C10.0786 6.64222 10.2606 6.32222 10.3846 5.94622C10.5126 5.56622 10.5766 5.13822 10.5766 4.66222Z" fill="white"/>
</svg>
