<svg viewBox="0 0 12 8" xmlns="http://www.w3.org/2000/svg">
  <path fill-rule="evenodd" clip-rule="evenodd" d="M2.23057 3.47824L0.831606 6.71154L0.415803 6.71184L0 6.71214V7.20273V7.69332H2.12176H4.24352V7.20273V6.71214H3.92358C3.74761 6.71214 3.60595 6.70668 3.60881 6.7C3.61166 6.69333 3.75014 6.33179 3.91655 5.89657C4.08295 5.46137 4.22285 5.10538 4.22744 5.10551C4.23201 5.10564 4.63096 5.7007 5.11399 6.42787C5.59702 7.15505 5.99573 7.75 6 7.75C6.00427 7.74999 6.40298 7.15505 6.88601 6.4279C7.36904 5.70076 7.76804 5.1057 7.77269 5.10555C7.77732 5.1054 7.91722 5.46127 8.08357 5.89636C8.24991 6.33144 8.38834 6.69299 8.39119 6.69978C8.39405 6.70658 8.25239 6.71214 8.07642 6.71214H7.75648V7.20273V7.69332H9.87824H12V7.20273V6.71214L11.5842 6.71184L11.1684 6.71154L9.76943 3.47816C9 1.69982 8.36618 0.247203 8.36092 0.250175C8.35568 0.253132 7.82412 1.10039 7.17968 2.13296C6.53526 3.16552 6.00445 4.01028 6.00011 4.01019C5.99577 4.01009 5.46473 3.16515 4.82 2.13256C4.17528 1.09995 3.64368 0.252791 3.63866 0.250004C3.63364 0.247203 3 1.6999 2.23057 3.47824Z"/>
</svg>
