<svg viewBox="0 0 30 20" xmlns="http://www.w3.org/2000/svg">
  <path d="M23.4509 12.8526C23.892 13.0662 24.1125 13.4296 24.1125 13.9425V18.0769V18.8141C24.1125 19.1346 24.0132 19.4124 23.8148 19.6474C23.6163 19.8825 23.3627 20 23.054 20H6.81367C6.52701 20 6.28445 19.8825 6.086 19.6474C5.88754 19.4124 5.78831 19.1346 5.78831 18.8141V18.0769V13.9425C5.78831 13.4296 6.00882 13.0663 6.44983 12.8526L11.0143 10.8013L12.8004 10C11.9625 9.50855 11.323 8.80342 10.882 7.88462C10.4631 7.07265 10.2536 6.20726 10.2536 5.28846C10.2536 5.01068 10.2756 4.74359 10.3197 4.48718C10.3638 4.23077 10.419 3.98504 10.4851 3.75C10.7938 2.66026 11.3506 1.76282 12.1555 1.05769C12.9603 0.352564 13.892 0 14.9504 0C16.0308 0 16.9791 0.363248 17.7949 1.08974C18.6108 1.81624 19.1621 2.73504 19.4487 3.84615C19.559 4.38034 19.6143 4.86111 19.6143 5.28846C19.6143 6.14316 19.4378 6.96581 19.0851 7.75641C18.6441 8.71795 18.0046 9.44444 17.1667 9.9359L19.052 10.8013L23.4509 12.8526ZM5.78831 11.5064C5.3032 11.72 4.92282 12.046 4.64719 12.4839C4.37155 12.922 4.23374 13.4081 4.23374 13.9425V18.0769H0.826902C0.584344 18.0769 0.385888 17.9862 0.231533 17.8046C0.0771775 17.6229 0 17.3932 0 17.1155V13.2052C0 12.7349 0.176406 12.4359 0.529217 12.3077L5.65601 10C5.03859 9.63675 4.54245 9.11859 4.16759 8.44551C3.79272 7.77244 3.60529 7.01923 3.60529 6.1859C3.60529 5.60897 3.70452 5.05876 3.90298 4.53526C4.10143 4.01175 4.37155 3.55769 4.71334 3.17308C5.05513 2.78846 5.45204 2.48397 5.90408 2.25962C6.35612 2.03526 6.84675 1.92308 7.37596 1.92308C7.72878 1.92308 8.05954 1.9765 8.36825 2.08333C8.67696 2.19017 8.97464 2.32906 9.2613 2.5C8.88644 3.39744 8.69901 4.32692 8.69901 5.28846C8.69901 6.03632 8.80926 6.75748 9.02977 7.45192C9.25028 8.14637 9.55899 8.77137 9.9559 9.32692C9.71334 9.58333 9.45976 9.78632 9.19515 9.9359L5.78831 11.5064ZM29.4708 12.3077C29.8235 12.4786 30 12.7778 30 13.2052V17.1154C30 17.3932 29.9227 17.6228 29.7685 17.8045C29.6141 17.9861 29.4157 18.0768 29.1729 18.0768H25.6669V13.9424C25.6669 13.4081 25.5291 12.9221 25.2536 12.4838C24.9778 12.0459 24.6085 11.7199 24.1455 11.5063L20.871 10C20.5623 9.82906 20.2644 9.58333 19.978 9.26282C20.353 8.70727 20.645 8.09295 20.8545 7.41987C21.064 6.7468 21.1687 6.03632 21.1687 5.28846C21.1687 4.79701 21.1246 4.32692 21.0364 3.8782C20.9482 3.42949 20.8159 2.99145 20.6395 2.5641C20.9261 2.37179 21.2349 2.21688 21.5656 2.09936C21.8964 1.98184 22.2382 1.92308 22.5911 1.92308C23.1204 1.92308 23.6165 2.03526 24.0794 2.25962C24.5424 2.48397 24.9451 2.78846 25.2869 3.17308C25.6284 3.55769 25.8986 4.01175 26.097 4.53526C26.2957 5.05876 26.3949 5.60897 26.3949 6.1859C26.3949 6.99786 26.2073 7.74038 25.8326 8.41346C25.4576 9.08654 24.9836 9.6047 24.4104 9.96795L29.4708 12.3077Z"/>
</svg>
