<svg viewBox="0 0 14 14" xmlns="http://www.w3.org/2000/svg">
<path d="M13.9031 11.9602C13.7318 12.3917 13.066 13.2005 12.6008 13.546C12.1794 13.8581 11.8815 13.9777 11.4879 13.9959C11.1641 14.0114 11.0298 13.9845 10.6158 13.8172C7.36774 12.5091 4.77449 10.5571 2.71509 7.8748C1.63983 6.47417 0.820932 5.02145 0.261384 3.51441C-0.0649803 2.63528 -0.081046 2.25364 0.187023 1.80375C0.302926 1.61427 0.795916 1.1444 1.15372 0.882413C1.75114 0.448461 2.0261 0.287946 2.24597 0.243047C2.3963 0.211169 2.65794 0.235863 2.82456 0.294681C2.90558 0.321845 3.03021 0.385378 3.10204 0.430277C3.54179 0.715163 4.76531 2.24488 5.16535 3.00817C5.39417 3.44437 5.47083 3.76742 5.39922 4.00695C5.32555 4.26445 5.20276 4.39982 4.65446 4.83153C4.43458 5.00529 4.22871 5.18399 4.19635 5.23136C4.11281 5.34877 4.04556 5.5791 4.04556 5.74186C4.04855 6.11946 4.29848 6.80373 4.62669 7.3304C4.88098 7.73921 5.33702 8.26341 5.78824 8.66593C6.31795 9.14006 6.78524 9.46311 7.31265 9.71859C7.99063 10.0484 8.40467 10.1319 8.70762 9.99405C8.78405 9.96037 8.86507 9.91503 8.89054 9.89482C8.91395 9.87439 9.09182 9.66202 9.28645 9.42697C9.66124 8.96608 9.74639 8.89155 10.0032 8.80556C10.3293 8.69736 10.6621 8.72654 10.9979 8.89379C11.2527 9.02265 11.8079 9.35917 12.1664 9.6032C12.638 9.92625 13.6474 10.7306 13.7835 10.8909C14.0238 11.1805 14.0646 11.5514 13.9031 11.9602Z"/>
<path d="M13.783 10.8911C13.6469 10.7308 12.6375 9.9267 12.1659 9.60342C11.8074 9.3594 11.2524 9.02288 10.9975 8.89402C10.6617 8.72677 10.3289 8.69758 10.0028 8.80579C9.74593 8.89177 9.66078 8.9663 9.28599 9.42719C9.09136 9.66224 8.91349 9.87462 8.89008 9.89505C8.86461 9.91525 8.78359 9.9606 8.70716 9.99427C8.40421 10.1321 7.99017 10.0486 7.31219 9.71882C6.78478 9.46334 6.31749 9.14029 5.78778 8.66615C5.33656 8.26363 4.88075 7.73943 4.62623 7.33062C4.2978 6.80395 4.04786 6.11946 4.0451 5.74209C4.0451 5.57933 4.11235 5.34922 4.19589 5.23158C4.20897 5.21228 4.25075 5.17119 4.31042 5.11844C3.49382 5.59751 2.51335 5.87723 1.45828 5.87723C1.4312 5.87723 1.40435 5.87544 1.37704 5.87499C1.76767 6.55319 2.21223 7.21995 2.71486 7.87503C4.77426 10.5573 7.36728 12.5093 10.6155 13.8174C11.0296 13.9847 11.1638 14.0119 11.4877 13.9961C11.8813 13.9777 12.1792 13.8581 12.6006 13.5463C13.0656 13.2008 13.7316 12.3919 13.9028 11.9604C14.0646 11.5514 14.0238 11.1805 13.783 10.8911Z"/>
<path d="M6.90757 0.102512C7.01658 0.00552998 7.09278 -0.00816431 7.46987 0.0035095C7.6661 0.0102444 7.95551 0.032694 8.11319 0.0506537C8.90867 0.147861 9.55176 0.335315 10.2573 0.67206C10.9516 1.00409 11.3957 1.31816 11.9834 1.88995C12.534 2.42964 12.8391 2.83912 13.1631 3.474C13.6143 4.35941 13.8714 5.4123 13.915 6.5716C13.9308 6.96694 13.9198 7.05517 13.8271 7.16809C13.6511 7.3872 13.2655 7.35083 13.1335 7.10478C13.0915 7.02351 13.08 6.95347 13.0663 6.63693C13.0426 6.15134 13.0082 5.83727 12.9391 5.46214C12.6662 3.99124 11.9442 2.81622 10.7923 1.97347C9.832 1.26855 8.83959 0.925067 7.53964 0.850534C7.10013 0.82584 7.02324 0.809901 6.92409 0.735368C6.73865 0.592812 6.72947 0.258537 6.90757 0.102512Z"/>
<path d="M9.66491 3.01288C9.19992 2.74169 8.51254 2.54032 7.88597 2.49071C7.65922 2.47275 7.53436 2.4274 7.44875 2.33019C7.31724 2.18337 7.30301 1.98447 7.41456 1.81969C7.53436 1.63672 7.71935 1.60709 8.27247 1.68858C9.67639 1.88973 10.764 2.52685 11.4767 3.56178C11.8769 4.14457 12.1264 4.82928 12.2125 5.56361C12.2423 5.83256 12.2423 6.32286 12.21 6.40413C12.1794 6.4809 12.0824 6.58507 11.999 6.62795C11.9091 6.67307 11.717 6.66881 11.6109 6.61425C11.4328 6.52625 11.3796 6.38617 11.3796 6.00654C11.3796 5.42128 11.2244 4.80437 10.9561 4.32551C10.6504 3.77864 10.207 3.32695 9.66491 3.01288Z"/>
<path d="M10.4473 6.0245C10.3105 6.14663 10.0588 6.15112 9.90567 6.03573C9.79527 5.95446 9.75993 5.86848 9.73468 5.6359C9.70416 5.32632 9.64907 5.10946 9.55406 4.90853C9.35025 4.48131 8.99222 4.25996 8.38631 4.18745C8.10148 4.15377 8.0161 4.12212 7.92315 4.01593C7.75446 3.81927 7.81941 3.50071 8.05283 3.3833C8.14073 3.34065 8.17768 3.33571 8.37185 3.34716C8.49234 3.35389 8.67044 3.37432 8.76546 3.39453C9.22127 3.48949 9.57012 3.65876 9.86872 3.93242C10.2529 4.28735 10.4636 4.71659 10.5559 5.33328C10.6181 5.73535 10.5924 5.89362 10.4473 6.0245Z"/>
<path d="M13.783 10.8911C13.6469 10.7308 12.6375 9.9267 12.1659 9.60342C11.8074 9.3594 11.2524 9.02288 10.9975 8.89402C10.6617 8.72677 10.3289 8.69758 10.0028 8.80579C9.74593 8.89177 9.66078 8.9663 9.28599 9.42719C9.09136 9.66224 8.91349 9.87462 8.89008 9.89505C8.86598 9.91435 8.79093 9.95588 8.71772 9.98911C8.14348 10.6657 7.46711 11.2508 6.71019 11.7168C7.89309 12.5457 9.19143 13.2434 10.616 13.817C11.03 13.9842 11.1643 14.0114 11.4881 13.9957C11.8818 13.9773 12.1797 13.8576 12.601 13.5458C13.066 13.2003 13.7321 12.3914 13.9033 11.96C14.0646 11.5514 14.0238 11.1805 13.783 10.8911Z"/>
</svg>
