<svg viewBox="0 0 16 17" xmlns="http://www.w3.org/2000/svg">
<path d="M0 17C0.222599 16.2959 0.432293 15.6359 0.641988 14.976C0.851682 14.3229 1.03879 13.6595 1.27752 13.0166C1.40011 12.6901 1.3614 12.4451 1.20655 12.139C0.36132 10.4858 0.109686 8.7135 0.403258 6.86979C0.651666 5.30842 1.28075 3.92734 2.29696 2.75376C3.97129 0.825002 6.06178 -0.100256 8.53295 0.00859819C10.3428 0.0868369 11.9429 0.784182 13.3075 2.04621C14.5786 3.21979 15.4077 4.67911 15.7916 6.41397C16.1013 7.81206 16.0658 9.20335 15.6851 10.581C15.2012 12.3261 14.2754 13.765 12.8978 14.8603C10.9848 16.3843 8.83943 16.8571 6.50053 16.3775C5.79724 16.2346 5.12622 15.9693 4.49391 15.6087C4.39068 15.5509 4.30357 15.5373 4.19066 15.5781C2.99056 15.9863 1.78724 16.3911 0.587144 16.7959C0.406485 16.8571 0.222599 16.9218 0 17ZM2.0421 14.8671C2.10662 14.8501 2.13566 14.8433 2.16469 14.8331C2.91637 14.5814 3.66804 14.3263 4.42294 14.0814C4.49391 14.0575 4.59069 14.078 4.65844 14.112C4.98427 14.2821 5.2972 14.4862 5.63271 14.6358C7.01347 15.2515 8.43617 15.3502 9.87499 14.9284C11.5913 14.4215 12.9075 13.3432 13.8076 11.7138C14.5786 10.3191 14.8431 8.81215 14.6044 7.22697C14.3012 5.20977 13.3204 3.62459 11.6977 2.49863C10.2912 1.52575 8.74264 1.19579 7.0909 1.47132C5.6682 1.70944 4.45197 2.39318 3.44867 3.48852C2.58731 4.42738 2.00984 5.53633 1.75821 6.81196C1.40011 8.63867 1.66465 10.3667 2.62602 11.9417C2.81958 12.2581 2.81313 12.4996 2.69699 12.8227C2.46149 13.4861 2.2647 14.163 2.0421 14.8671Z" />
<path d="M12.2107 10.6695C12.201 11.326 11.9074 11.826 11.3138 12.139C10.7299 12.4451 10.1363 12.5234 9.52658 12.2717C8.97815 12.0437 8.42326 11.8226 7.89419 11.5471C7.19736 11.1831 6.62634 10.6389 6.10372 10.0368C5.52625 9.37003 5.03589 8.62846 4.63263 7.83587C4.34551 7.27459 4.17131 6.6793 4.2326 6.02617C4.29712 5.33223 4.6036 4.77776 5.11977 4.35935C5.223 4.27771 5.37786 4.24029 5.51012 4.22668C5.68111 4.21308 5.85209 4.24029 6.02307 4.2539C6.16502 4.2675 6.24244 4.37296 6.29083 4.49542C6.41665 4.82198 6.52956 5.14854 6.64893 5.4785C6.72958 5.69961 6.79087 5.93093 6.88765 6.14523C7.00702 6.41056 6.93282 6.63167 6.77797 6.83577C6.6457 7.00926 6.50698 7.17594 6.35535 7.32562C6.22954 7.45148 6.20695 7.58074 6.29083 7.73382C6.66183 8.43116 7.11348 9.05707 7.7103 9.56392C8.10388 9.89729 8.5394 10.1456 8.99105 10.3769C9.12332 10.445 9.25236 10.4348 9.3556 10.3089C9.5782 10.0402 9.80402 9.77483 10.0234 9.50269C10.1653 9.32921 10.2363 9.29519 10.4267 9.39724C10.9783 9.68979 11.5235 9.99253 12.0719 10.2953C12.201 10.3701 12.2332 10.4926 12.2107 10.6695Z" />
</svg>
