<svg viewBox="0 0 14 14" xmlns="http://www.w3.org/2000/svg">
<path fill-rule="evenodd" clip-rule="evenodd" d="M1.85998 0.0551967C1.69127 0.224302 1.78832 0.595905 2.01695 0.655799C2.14746 0.690024 2.25424 0.739103 2.25424 0.764772C2.25424 0.960734 0.815322 3.09505 0.45417 3.43492C0.0665597 3.79975 0 3.93594 0 4.36506C0 5.44136 1.25739 5.98516 2.00793 5.2334L2.33658 4.90422L2.6377 5.2334C2.88531 5.50423 3.03836 5.56258 3.5 5.56258C3.96164 5.56258 4.11469 5.50423 4.3623 5.2334L4.66342 4.90422L4.99207 5.2334C5.46178 5.70387 6.17317 5.69603 6.6532 5.21522L7 4.86786L7.3468 5.21522C7.82683 5.69603 8.53822 5.70387 9.00793 5.2334L9.33658 4.90422L9.63769 5.2334C9.8853 5.50423 10.0384 5.56258 10.5 5.56258C10.9616 5.56258 11.1147 5.50423 11.3623 5.2334L11.6634 4.90422L11.9921 5.2334C12.7426 5.98516 14 5.44136 14 4.36506C14 3.93594 13.9334 3.79975 13.5458 3.43492C13.1847 3.09505 11.7458 0.960734 11.7458 0.764772C11.7458 0.739103 11.8568 0.688955 11.9924 0.653422C12.1698 0.606957 12.2282 0.511174 12.2001 0.312716L12.161 0.0366584L7.05066 0.00576053C4.23998 -0.011352 1.90424 0.0109894 1.85998 0.0551967ZM2.0803 6.18065C1.95205 6.25516 1.6851 6.34928 1.48708 6.3898L1.12712 6.46348L1.0958 10.2318L1.06447 14H2.07461H3.08475V11.2073V8.41466H4.80508H6.52542V11.2073V14H9.73048H12.9355L12.9042 10.2318L12.8729 6.46348L12.5169 6.39016C12.3212 6.34987 12.04 6.25171 11.8921 6.17209C11.6724 6.05397 11.5749 6.0611 11.3614 6.21083C11.0193 6.45088 9.98129 6.45124 9.63959 6.21154C9.40491 6.04696 9.34369 6.04696 9.02585 6.21154C8.57476 6.44518 7.79942 6.44589 7.35 6.21309C7.0363 6.05064 6.9637 6.05064 6.65 6.21309C6.20058 6.44589 5.42524 6.44518 4.97415 6.21154C4.65631 6.04696 4.59508 6.04696 4.36041 6.21154C4.02476 6.44696 2.96907 6.45219 2.66249 6.21998C2.38546 6.01012 2.37514 6.0094 2.0803 6.18065ZM11.5085 10.0784V11.7421H9.78814H8.0678V10.0784V8.41466H9.78814H11.5085V10.0784Z" />
</svg>
