<svg viewBox="0 0 12 12" xmlns="http://www.w3.org/2000/svg">
  <path d="M0.666726 11.3333C0.298539 10.9651 0.298539 10.3682 0.666726 10L10 0.666677C10.3682 0.298486 10.9652 0.298486 11.3333 0.666677V0.666677C11.7015 1.03487 11.7015 1.63181 11.3333 2L2.00006 11.3333C1.63187 11.7015 1.03491 11.7015 0.666726 11.3333V11.3333Z"/>
  <path d="M11.3333 11.3333C10.9651 11.7015 10.3681 11.7015 9.99994 11.3333L0.66666 2C0.298473 1.63181 0.298473 1.03486 0.66666 0.66667V0.66667C1.03485 0.298479 1.6318 0.298479 1.99999 0.66667L11.3333 10C11.7015 10.3682 11.7015 10.9651 11.3333 11.3333V11.3333Z"/>
</svg>
