<svg viewBox="0 0 12 16" xmlns="http://www.w3.org/2000/svg">
<path fill-rule="evenodd" clip-rule="evenodd" d="M2.232 1.34871C3.14942 0.601624 4.26832 0.131841 5.41948 0.0103632C5.62381 -0.0111874 6.39713 0.00296184 6.6874 0.0335804C7.08536 0.0755542 7.46113 0.158979 7.87674 0.297596C9.20072 0.739162 10.3492 1.66076 11.0866 2.87344C11.5682 3.66521 11.8589 4.51949 11.9726 5.47637C12.0091 5.7836 12.0092 6.4343 11.9728 6.7492C11.8215 8.05834 11.3206 9.27575 10.3996 10.5724C10.0198 11.1072 9.63976 11.5721 8.49603 12.9007C7.53529 14.0167 7.40647 14.17 7.11918 14.5386C6.81688 14.9264 6.35614 15.5531 6.19113 15.8008C6.00736 16.0766 5.98934 16.0742 5.75931 15.7422C5.31451 15.1002 5.11713 14.8368 4.67775 14.2986C4.34263 13.8881 4.1484 13.6592 3.51938 12.9334C1.82316 10.976 1.17736 10.0897 0.679998 9.0366C0.390546 8.42372 0.140596 7.62516 0.0573539 7.04734C-0.0328552 6.421 -0.0148293 5.49715 0.0985993 4.93424C0.382091 3.52729 1.15798 2.22331 2.232 1.34871ZM6 4C4.89543 4 4 4.89543 4 6C4 7.10457 4.89543 8 6 8C7.10457 8 8 7.10457 8 6C8 4.89543 7.10457 4 6 4Z" />
</svg>
