<svg viewBox="0 0 13 16" xmlns="http://www.w3.org/2000/svg">
  <path fill-rule="evenodd" clip-rule="evenodd" d="M6.25199 0.00944204C6.11068 0.027862 6.01764 0.0443535 6.00694 0.0528874C6.00081 0.057775 5.97193 0.0653115 5.94276 0.0696338C5.91358 0.0739562 5.88714 0.0816145 5.88401 0.0866573C5.88088 0.0916889 5.85589 0.09917 5.82847 0.10326C5.80104 0.107349 5.7786 0.115118 5.7786 0.120527C5.7786 0.125924 5.76982 0.130513 5.75911 0.130723C5.74839 0.130934 5.71956 0.140731 5.69506 0.152512C5.67055 0.164294 5.64503 0.174091 5.63836 0.174302C5.63168 0.174512 5.58907 0.194794 5.54368 0.219387C5.49828 0.24398 5.44736 0.269405 5.43052 0.275889C5.41367 0.282372 5.39988 0.292181 5.39988 0.297678C5.39988 0.303175 5.39313 0.307675 5.38488 0.307675C5.37663 0.307675 5.35831 0.317649 5.34419 0.329841C5.33007 0.342032 5.31175 0.352007 5.3035 0.352007C5.29525 0.352007 5.2885 0.355996 5.2885 0.360884C5.2885 0.365761 5.26699 0.383283 5.24069 0.399819C5.2144 0.416354 5.17753 0.44353 5.15878 0.46021C5.14001 0.476901 5.09852 0.512488 5.06656 0.539298C4.99228 0.601651 4.92592 0.66775 4.8641 0.741009C4.83716 0.77295 4.80759 0.807307 4.7984 0.81736C4.7695 0.84898 4.65607 1.01224 4.62443 1.06772C4.59528 1.11887 4.53063 1.24837 4.50866 1.2996C4.49559 1.33008 4.47775 1.37073 4.469 1.38994C4.46025 1.40915 4.4531 1.43042 4.4531 1.4372C4.4531 1.44398 4.44844 1.45819 4.44276 1.46877C4.42934 1.49378 4.39946 1.59194 4.38524 1.65782C4.37908 1.68633 4.36949 1.72962 4.36393 1.75401C4.35837 1.77839 4.35361 1.81892 4.35334 1.84409C4.35307 1.86925 4.34638 1.89517 4.33847 1.9017C4.3285 1.90994 3.90681 1.91502 2.96006 1.91829C2.0419 1.92147 1.57783 1.92693 1.54034 1.93499C1.5097 1.94159 1.45457 1.95343 1.41781 1.96133C1.38105 1.96922 1.34597 1.97883 1.33984 1.98267C1.33371 1.98653 1.31116 1.99334 1.28972 1.99781C1.26827 2.00228 1.24572 2.00966 1.23959 2.01421C1.23347 2.01876 1.21395 2.02594 1.19624 2.03016C1.1442 2.04256 0.848547 2.19098 0.807245 2.22543C0.799983 2.2315 0.768984 2.25496 0.738352 2.27758C0.659223 2.33603 0.626787 2.36436 0.538146 2.4524C0.426614 2.5632 0.331791 2.67732 0.331791 2.70077C0.331791 2.70771 0.324272 2.71625 0.315083 2.71976C0.305894 2.72327 0.298375 2.73034 0.298375 2.73548C0.298375 2.74062 0.283973 2.76627 0.266362 2.79248C0.248752 2.8187 0.230875 2.85136 0.22662 2.86508C0.222376 2.87879 0.214234 2.89001 0.208519 2.89001C0.202805 2.89001 0.198127 2.89489 0.198127 2.90085C0.198127 2.91079 0.13193 3.06116 0.110009 3.10101C0.104852 3.1104 0.0970659 3.13905 0.0927218 3.16468C0.0883666 3.19033 0.0805138 3.21394 0.0752787 3.21716C0.0700324 3.22039 0.0623244 3.2466 0.0581363 3.2754C0.053937 3.30422 0.046552 3.33279 0.0417067 3.3389C0.0268812 3.35761 0.00645285 3.55147 0.000749849 3.72761C-0.00478607 3.89873 0.0214343 4.21382 0.0430768 4.23604C0.0487129 4.24183 0.0533244 4.2572 0.0533244 4.2702C0.0533244 4.29369 0.0907725 4.427 0.109263 4.46934C0.114587 4.48153 0.129546 4.51644 0.142501 4.54692C0.233515 4.76099 0.365385 4.95389 0.532677 5.1177C0.645879 5.22854 0.680209 5.25898 0.732783 5.29517C0.754225 5.30993 0.777861 5.32716 0.785302 5.33345C0.825869 5.36775 0.833009 5.37261 0.8429 5.37261C0.848848 5.37261 0.860566 5.37885 0.868942 5.38646C0.888123 5.40392 0.939606 5.43227 1.0391 5.48017C1.08198 5.50083 1.12459 5.52177 1.13377 5.52672C1.14857 5.5347 1.15112 6.04336 1.15605 9.96772C1.16032 13.3667 1.16472 14.4075 1.17493 14.433C1.18225 14.4512 1.19366 14.503 1.2003 14.5478C1.20692 14.5928 1.21723 14.6386 1.22319 14.6496C1.22914 14.6607 1.23402 14.6781 1.23402 14.6882C1.23402 14.6984 1.24097 14.7224 1.24946 14.7416C1.25796 14.7608 1.27644 14.809 1.29053 14.8486C1.30462 14.8882 1.31956 14.9231 1.32371 14.9262C1.32787 14.9292 1.33518 14.9442 1.33996 14.9594C1.34475 14.9746 1.36068 15.0061 1.37536 15.0292C1.39005 15.0524 1.40685 15.0823 1.4127 15.0957C1.42447 15.1227 1.44531 15.1566 1.46237 15.1765C1.46849 15.1836 1.48102 15.2005 1.49021 15.214C1.5341 15.2787 1.59397 15.3548 1.63338 15.396C1.71027 15.4764 1.83243 15.5911 1.84117 15.5911C1.84585 15.5911 1.86127 15.6036 1.87548 15.6188C1.88967 15.6341 1.90575 15.6466 1.91122 15.6466C1.91669 15.6466 1.93025 15.6565 1.94133 15.6687C1.95241 15.6809 1.96658 15.6909 1.97281 15.6909C1.97903 15.6909 1.99234 15.6983 2.00237 15.7073C2.03329 15.7351 2.28944 15.8682 2.31211 15.8682C2.31814 15.8682 2.33742 15.8757 2.35497 15.8848C2.37252 15.8939 2.39535 15.9014 2.40571 15.9014C2.41607 15.9014 2.42738 15.906 2.43083 15.9116C2.43429 15.9171 2.4582 15.9252 2.48397 15.9296C2.50973 15.9339 2.53853 15.9417 2.54796 15.9469C2.56522 15.9564 2.64864 15.9718 2.7823 15.9901C2.87812 16.0033 10.1271 16.0033 10.2229 15.9901C10.3614 15.9711 10.4403 15.9562 10.4595 15.9455C10.4701 15.9396 10.4864 15.9347 10.4956 15.9347C10.5118 15.9347 10.6166 15.9018 10.6847 15.8754C10.748 15.8509 10.9528 15.7443 10.988 15.7177C11.0075 15.703 11.0266 15.6909 11.0306 15.6909C11.0393 15.6909 11.1604 15.5996 11.2138 15.5528C11.298 15.479 11.3988 15.3703 11.4661 15.2808C11.505 15.229 11.542 15.1806 11.5482 15.1732C11.5545 15.1659 11.5596 15.1573 11.5596 15.1543C11.5596 15.1513 11.5718 15.1309 11.5867 15.109C11.6111 15.0733 11.67 14.9571 11.7196 14.8469C11.7296 14.8246 11.7378 14.797 11.7378 14.7854C11.7378 14.7738 11.7423 14.7596 11.7478 14.7538C11.7603 14.7408 11.7912 14.6257 11.8109 14.5187C11.8191 14.4744 11.8298 14.432 11.8347 14.4245C11.8396 14.4169 11.8461 12.4139 11.8492 9.97326C11.8541 6.04376 11.8567 5.53474 11.8714 5.52708C11.8806 5.52234 11.9371 5.49518 11.9969 5.46675C12.0567 5.43831 12.1119 5.40904 12.1194 5.40172C12.127 5.3944 12.1533 5.37639 12.1778 5.36169C12.2023 5.34701 12.2248 5.33222 12.2279 5.32883C12.2309 5.32544 12.2548 5.30829 12.2808 5.29071C12.3068 5.27314 12.3281 5.25445 12.3281 5.24919C12.3281 5.24392 12.3334 5.23961 12.3399 5.23961C12.3516 5.23961 12.5402 5.05562 12.5978 4.9881C12.6847 4.88605 12.851 4.61019 12.8515 4.56724C12.8516 4.56013 12.8554 4.55265 12.86 4.55061C12.8646 4.54859 12.8807 4.50952 12.8958 4.4638C12.9109 4.41808 12.9266 4.37569 12.9307 4.3696C12.9349 4.3635 12.9419 4.33607 12.9463 4.30864C12.9508 4.28121 12.9585 4.25372 12.9634 4.24757C13.012 4.1873 13.0123 3.40101 12.9637 3.33899C12.9589 3.33284 12.9517 3.30638 12.9476 3.2802C12.9436 3.25404 12.9358 3.22411 12.9302 3.2137C12.9246 3.20331 12.9117 3.16737 12.9015 3.13384C12.8912 3.10031 12.8658 3.03662 12.845 2.99229C12.8241 2.94797 12.8071 2.90682 12.8071 2.90085C12.8071 2.89489 12.8024 2.89001 12.7967 2.89001C12.791 2.89001 12.7828 2.87879 12.7786 2.86508C12.7743 2.85136 12.7565 2.8187 12.7389 2.79248C12.7213 2.76627 12.7068 2.74062 12.7068 2.73548C12.7068 2.73034 12.6993 2.72327 12.6901 2.71976C12.681 2.71625 12.6734 2.70785 12.6734 2.7011C12.6734 2.6804 12.5725 2.55677 12.4786 2.46245C12.3891 2.37258 12.3164 2.31022 12.2408 2.25842C12.2185 2.2431 12.1948 2.22559 12.1882 2.21949C12.1815 2.2134 12.1564 2.19843 12.1324 2.18624C12.1083 2.17405 12.086 2.16065 12.0829 2.15646C12.0797 2.15226 12.0646 2.14355 12.0494 2.13709C12.0343 2.13063 12.0143 2.12055 12.0051 2.11471C11.9831 2.10073 11.8386 2.03665 11.8289 2.03656C11.8247 2.03651 11.8083 2.02974 11.7924 2.02149C11.7766 2.01324 11.744 2.00284 11.7201 1.99839C11.6962 1.99393 11.6716 1.98699 11.6655 1.98297C11.6593 1.97896 11.6242 1.96922 11.5874 1.96133C11.5507 1.95343 11.4955 1.94159 11.4649 1.93499C11.4274 1.92693 10.9633 1.92147 10.0452 1.91829C9.18486 1.91532 8.6763 1.90959 8.66807 1.9028C8.66088 1.89686 8.65243 1.86345 8.64928 1.82855C8.64305 1.75969 8.61305 1.61234 8.59802 1.57668C8.59287 1.56449 8.57958 1.52459 8.56849 1.48801C8.55002 1.42717 8.53809 1.39629 8.48924 1.28298C8.47268 1.2446 8.40483 1.10991 8.38079 1.06772C8.34916 1.01224 8.23572 0.84898 8.20683 0.81736C8.19764 0.807307 8.16756 0.772307 8.14 0.739579C8.07131 0.658041 7.94273 0.533302 7.89216 0.499167C7.86919 0.483662 7.85038 0.467902 7.85038 0.464133C7.85037 0.460376 7.82029 0.437346 7.78356 0.412963C7.74682 0.38858 7.71675 0.364885 7.71674 0.360319C7.71674 0.355753 7.71197 0.352007 7.70614 0.352007C7.70033 0.352007 7.67354 0.337222 7.64663 0.319145C7.61971 0.301069 7.58562 0.280987 7.57088 0.274514C7.55614 0.268053 7.50657 0.242939 7.46074 0.218711C7.41491 0.194495 7.37328 0.174678 7.36824 0.174678C7.35881 0.174678 7.26789 0.136874 7.23734 0.12025C7.22791 0.115118 7.19911 0.107371 7.17335 0.103049C7.14757 0.0987156 7.12394 0.0910461 7.12081 0.0860145C7.11768 0.0809828 7.09384 0.0736458 7.06784 0.0697224C7.04183 0.0657991 7.01053 0.0580188 6.99828 0.052433C6.97578 0.0421701 6.88506 0.0266317 6.74209 0.00857753C6.64844 -0.00325912 6.34533 -0.0027271 6.25199 0.00944204ZM6.71982 0.883492C6.78108 0.895373 6.87043 0.917883 6.91838 0.933499C7.01529 0.965074 7.17093 1.03828 7.17093 1.05229C7.17093 1.05725 7.17773 1.06132 7.18604 1.06132C7.19434 1.06132 7.22568 1.07986 7.25565 1.10251C7.28564 1.12518 7.31702 1.14886 7.32539 1.15516C7.35573 1.17797 7.51107 1.33571 7.52737 1.36026C7.53656 1.37411 7.54933 1.39106 7.55575 1.39794C7.57311 1.41653 7.67707 1.59296 7.69699 1.63763C7.70649 1.65897 7.72531 1.71134 7.7388 1.75401C7.75229 1.79668 7.76787 1.84305 7.77344 1.85705C7.79805 1.91897 7.89189 1.91471 6.50261 1.91471C5.60614 1.91471 5.22167 1.91117 5.22167 1.90294C5.22167 1.88288 5.25468 1.78032 5.29103 1.68751C5.32059 1.61198 5.42292 1.42226 5.44346 1.40489C5.44706 1.40184 5.46973 1.37441 5.49385 1.34394C5.54071 1.28471 5.64888 1.17737 5.6893 1.14998C5.71229 1.13441 5.74416 1.10985 5.77535 1.0837C5.78274 1.07748 5.79366 1.0724 5.79961 1.0724C5.80555 1.0724 5.81705 1.0659 5.82515 1.05794C5.83323 1.04998 5.87996 1.02445 5.92897 1.00119C5.97798 0.977952 6.02565 0.955232 6.03492 0.950721C6.04419 0.946211 6.08178 0.933654 6.11846 0.922826C6.33151 0.859941 6.53107 0.846885 6.71982 0.883492ZM11.3869 2.80721C11.4114 2.81599 11.4382 2.82326 11.4465 2.82335C11.4613 2.82352 11.4948 2.83684 11.593 2.88168C11.6567 2.91076 11.7433 2.96719 11.7935 3.01223C11.8149 3.03149 11.8401 3.05301 11.8495 3.06006C11.8934 3.09304 12.0055 3.25405 12.0398 3.33333C12.113 3.50253 12.1197 3.5338 12.125 3.73232C12.1298 3.9155 12.1214 4.01109 12.0913 4.11469C12.072 4.18129 12.0063 4.32378 11.9926 4.32895C11.9872 4.33099 11.9828 4.3376 11.9828 4.34365C11.9828 4.3555 11.9028 4.46168 11.8575 4.50992C11.8165 4.55354 11.6709 4.66329 11.654 4.66329C11.646 4.66329 11.6377 4.66703 11.6357 4.67161C11.6301 4.68402 11.5321 4.72979 11.511 4.72979C11.501 4.72979 11.4927 4.73447 11.4927 4.7402C11.4927 4.74592 11.4689 4.75403 11.4398 4.75822C11.4107 4.76241 11.3799 4.77144 11.3713 4.77829C11.3509 4.79451 1.77561 4.80197 1.6875 4.78584C1.57268 4.76483 1.51249 4.74886 1.51249 4.7394C1.51249 4.73412 1.50372 4.72977 1.493 4.72974C1.46281 4.72966 1.32772 4.65704 1.2579 4.60337C1.17607 4.54046 1.14868 4.51424 1.09477 4.44719C1.07027 4.41672 1.04428 4.3855 1.037 4.37782C1.02973 4.37013 1.00282 4.32096 0.977199 4.26855C0.892155 4.09453 0.873386 3.99072 0.880248 3.73232C0.885516 3.5338 0.892188 3.50253 0.965381 3.33333C1.03099 3.18171 1.19161 3.00415 1.3374 2.9221C1.41908 2.87613 1.53683 2.82359 1.55873 2.82335C1.56699 2.82326 1.5938 2.81599 1.61831 2.80721C1.6856 2.78309 11.3196 2.78309 11.3869 2.80721ZM10.9692 9.97744C10.9692 13.1316 10.9659 14.3083 10.9567 14.3469C10.9306 14.457 10.9101 14.5169 10.8646 14.6158C10.8526 14.6419 10.801 14.7232 10.7744 14.7579C10.7227 14.8254 10.5603 14.9705 10.5364 14.9705C10.5294 14.9705 10.5237 14.9746 10.5237 14.9797C10.5237 14.9914 10.3679 15.0703 10.3449 15.0703C10.3354 15.0703 10.3227 15.0751 10.3167 15.0812C10.3106 15.0872 10.2783 15.0975 10.2448 15.1041C10.2113 15.1108 10.1689 15.1196 10.1505 15.1237C10.1068 15.1335 2.89831 15.1335 2.8547 15.1237C2.83632 15.1195 2.79873 15.1113 2.77116 15.1053C2.67975 15.0856 2.48155 14.9993 2.48155 14.9793C2.48155 14.9744 2.47481 14.9705 2.46657 14.9705C2.45833 14.9705 2.44251 14.9605 2.43143 14.9483C2.42035 14.9361 2.40714 14.9262 2.40209 14.9262C2.38843 14.9262 2.27275 14.8068 2.22481 14.7433C2.18044 14.6845 2.09177 14.5201 2.09172 14.4965C2.09171 14.4888 2.08707 14.4739 2.0814 14.4633C2.07573 14.4527 2.06319 14.4091 2.05352 14.3665C2.03768 14.2965 2.03595 13.8634 2.03597 9.97482L2.03601 5.66077H6.50261H10.9692V9.97744ZM4.02983 8.29714C3.88843 8.35034 3.80525 8.43349 3.75402 8.5728C3.73583 8.62225 3.73465 8.77951 3.73465 11.1524C3.73465 13.628 3.73509 13.6804 3.7563 13.7347C3.78267 13.8023 3.82013 13.8639 3.85407 13.8954C3.90317 13.9411 3.99725 13.9967 4.03588 14.003C4.05735 14.0064 4.0776 14.0136 4.08088 14.0188C4.08415 14.0241 4.11692 14.0284 4.1537 14.0284C4.22181 14.0284 4.30715 14.0076 4.37245 13.9749C4.43158 13.9454 4.51462 13.8612 4.55482 13.7901L4.59233 13.7236V11.1524C4.59233 8.72713 4.59123 8.57925 4.57291 8.54789C4.56222 8.5296 4.55346 8.50841 4.55341 8.50078C4.55338 8.49317 4.54833 8.48693 4.54221 8.48693C4.53608 8.48693 4.53107 8.48028 4.53107 8.47215C4.53107 8.45451 4.42786 8.35514 4.38709 8.33352C4.27774 8.27551 4.12787 8.26025 4.02983 8.29714ZM6.36895 8.29358C6.34751 8.30348 6.32244 8.31614 6.31325 8.3217C6.30406 8.32727 6.28508 8.33675 6.27108 8.34275C6.24776 8.35277 6.16727 8.42908 6.1406 8.46644C6.10837 8.51162 6.09081 8.55614 6.0748 8.63332C6.05889 8.70992 6.05706 8.96991 6.05706 11.1512C6.05706 13.2783 6.05918 13.5938 6.07389 13.6647C6.10103 13.7954 6.12864 13.8391 6.2512 13.9453C6.29988 13.9875 6.42261 14.0279 6.50261 14.028C6.65834 14.0283 6.82396 13.9253 6.89496 13.784C6.94972 13.6751 6.94814 13.7531 6.94814 11.1524C6.94814 8.55568 6.94958 8.62787 6.89531 8.52018C6.86104 8.45221 6.77993 8.36215 6.7362 8.34354C6.72106 8.33709 6.70116 8.3276 6.69197 8.32244C6.68278 8.31727 6.66273 8.30629 6.64741 8.29803C6.60368 8.27445 6.4168 8.27145 6.36895 8.29358ZM8.7025 8.2981C8.67187 8.30918 8.63406 8.32502 8.61848 8.33331C8.5677 8.36035 8.48538 8.4455 8.46001 8.49726C8.44636 8.52511 8.43017 8.55145 8.42404 8.5558C8.41666 8.56103 8.41289 9.43476 8.41289 11.1437V13.7236L8.45041 13.7901C8.53445 13.9388 8.68529 14.0284 8.85152 14.0284C8.8883 14.0284 8.92107 14.0241 8.92435 14.0188C8.92762 14.0136 8.94787 14.0064 8.96935 14.003C9.02387 13.9941 9.13556 13.9189 9.18155 13.8599C9.20663 13.8278 9.22845 13.7873 9.24895 13.7347C9.27012 13.6805 9.27057 13.6273 9.27057 11.1524C9.27057 8.77951 9.26939 8.62225 9.2512 8.5728C9.24055 8.54383 9.21939 8.50051 9.20417 8.47652C9.17265 8.42684 9.08839 8.34285 9.07006 8.34285C9.06332 8.34285 9.05208 8.33714 9.04507 8.33016C8.99381 8.27916 8.80404 8.2614 8.7025 8.2981Z" />
</svg>
